<svg xmlns="http://www.w3.org/2000/svg" viewBox="0 0 281.09 274.77"><defs><style>.cls-1{opacity:0.5;}.cls-2{fill:#696969;}</style></defs><g id="Layer_1" data-name="Layer 1"><g class="cls-1"><path class="cls-2" d="M94.46,175H94v0h0v0l.75.43h0a.71.71,0,0,0,.1-.32h0a.19.19,0,0,0,0-.08Z" transform="translate(-1.02 -4.23)"/><path class="cls-2" d="M260.37,112.06h0l-.38-.18h0v.43h0v-.43l0,.87h0v-.44h0v.44a.85.85,0,0,0,.8-.5l-.39-.19Z" transform="translate(-1.02 -4.23)"/><path class="cls-2" d="M254,55.51h.43a4.58,4.58,0,0,1,.3-1.17l.29-.79h0l-.81-.3a8,8,0,0,0-.64,2.26v0l.43,0h0Z" transform="translate(-1.02 -4.23)"/><path class="cls-2" d="M119.62,47h0L119.5,47l-.24-.15-.06.06-.06.07-.06.06h0l.69.52h0l0-.05a1.75,1.75,0,0,0,.16-.2l0,0-.38-.22Z" transform="translate(-1.02 -4.23)"/><path class="cls-2" d="M146.93,4.71l.32-.3a0,0,0,0,1,0,0h0l0,0,0,0,0-.07h0l-.69.52h0l0,.06.1.12h0l.05.06h0l.31-.29h0l-.32.29,0,0,.3-.31.29-.32-.31.29Z" transform="translate(-1.02 -4.23)"/><path class="cls-2" d="M53.34,36.84l.43,0a1,1,0,0,0-.41-.73l-.49.72h0a.16.16,0,0,1,0,.08h0l.43,0Z" transform="translate(-1.02 -4.23)"/><path class="cls-2" d="M226.84,95.53l.15.4a.77.77,0,0,0,.38-.31h0a1.14,1.14,0,0,0,.15-.46v-.09a1.12,1.12,0,0,0-.12-.39l-.07-.11h0l-.69.52a0,0,0,0,1,0,0s0,0,0,0h0v0h0l.14.36h0Z" transform="translate(-1.02 -4.23)"/><path class="cls-2" d="M275.43,131.61h0l.26.34-.26-.35h0l.27.34,0,0h0l.06-.06h0l-.6-.62h0l-.05,0h0l0,0,.27.34Zm-.26-.34.27.33h0Z" transform="translate(-1.02 -4.23)"/><path class="cls-2" d="M254.21,142.23l0,.43A.87.87,0,0,0,255,142l0-.08a1.06,1.06,0,0,0-.14-.69l-.73.46h0a.19.19,0,0,1,0,.08l0,0h0v0h0l0,.4Z" transform="translate(-1.02 -4.23)"/><polygon class="cls-2" points="77.18 106.88 77.18 106.88 77.18 106.88 77.5 106.59 77.5 106.59 77.5 106.59 77.25 106.32 76.61 106.9 76.72 107.02 76.72 107.02 76.86 107.17 77.18 106.88 77.18 106.88"/><path class="cls-2" d="M206.87,27.87h0l-.42.12a1.07,1.07,0,0,0,.21.38h0a.89.89,0,0,0,.6.3h0c.12,0,.43,0,1.61-.92l-.26-.34h0l-.27-.34a5.92,5.92,0,0,1-1.09.73.1.1,0,0,1,0-.06l-.41.12Z" transform="translate(-1.02 -4.23)"/><path class="cls-2" d="M239.21,238.62h0l-.43-.05a.46.46,0,0,1-.05.2h0l.59.63a.88.88,0,0,0,.24-.38h0a1.9,1.9,0,0,0,.08-.36h0l-.43,0Z" transform="translate(-1.02 -4.23)"/><path class="cls-2" d="M87,181.72h0l-.35-.25h0s0,0,0,0l0,0h0l.74.45v0l-.35-.26Z" transform="translate(-1.02 -4.23)"/><path class="cls-2" d="M188.2,34.64h0l.3.31h0l.05-.05a1.31,1.31,0,0,0,.12-.11h0L188,34.2h0l-.06,0h0l-.06.06h0l.3.31Z" transform="translate(-1.02 -4.23)"/><path class="cls-2" d="M225.58,16.91l-.13.4h0l.07,0h0l.11-.41h0l-.1.41.5.15.11-.52a.5.5,0,0,0,0-.12h0a.78.78,0,0,0,0-.16h0l-.39,0h0l.39,0-.39,0,0-.11h0l-.09,0h0l0,.13-.34,0,.33,0h0l-.33,0a1.35,1.35,0,0,1,0,.18l0,.07h0Z" transform="translate(-1.02 -4.23)"/><path class="cls-2" d="M228.33,72.94h0a3.79,3.79,0,0,0,1-.76l.09-.1-.33-.28h0l-.33-.28-.06.08a2.63,2.63,0,0,1-.76.56l.38.78Z" transform="translate(-1.02 -4.23)"/><path class="cls-2" d="M281.09,132.11l0,.09a1,1,0,0,0,.46.57l.4-.77h0l0,0a.46.46,0,0,1,0-.09l-.84.22Z" transform="translate(-1.02 -4.23)"/><path class="cls-2" d="M230.73,68.64s0,.1,0,.16h0s0,.07,0,.1l.06.17,0,0,.46-.25.3-.15a.43.43,0,0,1,0,0v0c0-.06,0-.12,0-.17h0l-.85.12h0A.34.34,0,0,1,230.73,68.64Z" transform="translate(-1.02 -4.23)"/><path class="cls-2" d="M278.63,84.06h0a1.14,1.14,0,0,0,.11-.11h0l-.62-.59h0l-.05,0a.82.82,0,0,0-.18.19l.69.51S278.62,84.08,278.63,84.06Z" transform="translate(-1.02 -4.23)"/><path class="cls-2" d="M280.4,86.41l.41-.15h0l.41-.14h0a.19.19,0,0,0,0-.08,1,1,0,0,0-.1-.29H281l-.11-.08-.22.37h0l-.23.36a.33.33,0,0,1-.11-.11l0,.08C280.37,86.3,280.39,86.36,280.4,86.41Z" transform="translate(-1.02 -4.23)"/><path class="cls-2" d="M272,197.72l.33.74h0l.08,0h0a.8.8,0,0,0,.27-.24h0a.82.82,0,0,0,.12-.3l-.43-.08.43.06-.82-.13Z" transform="translate(-1.02 -4.23)"/><path class="cls-2" d="M276.45,77.14l.1.12.06.08h0l.68-.52h0l-.05-.07a1.24,1.24,0,0,0-.16-.19h0l0,0-.58.64Z" transform="translate(-1.02 -4.23)"/><path class="cls-2" d="M56.11,54.51h0l.33-.26-.33.27.06.06.67-.53h0l-.12-.15-.68.53.07.08Zm.42-.33-.08.06.32-.26Z" transform="translate(-1.02 -4.23)"/><path class="cls-2" d="M24.59,59.82s0-.07,0-.11l0-.08h0l-.81-.29h0l0,.07a2.29,2.29,0,0,0-.08.28v0h0l.85.16A.15.15,0,0,1,24.59,59.82Z" transform="translate(-1.02 -4.23)"/><path class="cls-2" d="M33,60l.26.13.18.09h0l.12.05.14-.4h0l0-.14h0l-.11-.08.15,0,.06-.16-.2-.1-.08,0h0l-.11.22L33,59.26a.69.69,0,0,0-.09.53Z" transform="translate(-1.02 -4.23)"/><path class="cls-2" d="M116.53,183.23h0v.09h.1l0-.08.67,0a.77.77,0,0,0-.69-.74h-.08l-.07,0,.07.33Z" transform="translate(-1.02 -4.23)"/><path class="cls-2" d="M123.09,23.34l0-.05h0a.17.17,0,0,1,0,.07Z" transform="translate(-1.02 -4.23)"/><path class="cls-2" d="M176.87,82.23l0,0,.07.21-.22,0a.1.1,0,0,1,0,0v0s0,.08,0,.11H177l0,.07h0l.15.4a.79.79,0,0,0,.16-.08l.25-.12v-.29a.25.25,0,0,1,0-.08h0a.38.38,0,0,0,0-.1l-.43,0h0l-.07,0-.13-.25h0l-.09,0,0,0Z" transform="translate(-1.02 -4.23)"/><path class="cls-2" d="M111.44,43.74h0a.47.47,0,0,0,0,.1l.35-.17,0,.09h.06l0-.11.37-.18h0l-.06-.17,0-.07h0l-.35.12-.1-.41-.52.13.18.51Z" transform="translate(-1.02 -4.23)"/><polygon class="cls-2" points="175.74 78.18 175.74 78.18 175.74 78.18 175.74 78.18 175.74 78.18"/><path class="cls-2" d="M112.24,58.52h0l0,.06a.83.83,0,0,0-.15.23l.78.35,0,0v0A1,1,0,0,0,113,59h0Z" transform="translate(-1.02 -4.23)"/><path class="cls-2" d="M203.52,26.15l.3-.3,0-.16v-.11h0l0-.08-.12.06-.32,0,0-.2h0l0,.2-.12,0-.1-.1,0,0h0l0,0h0v0l-.56.76,1-.08Z" transform="translate(-1.02 -4.23)"/><path class="cls-2" d="M177.43,26.1l-.05.15h0l.08.14.07,0,.14-.05h0l-.1-.23h.09l.42-.05a.57.57,0,0,0-.07-.22h0a.67.67,0,0,0-.38-.29l-.16-.06-.16.07-.06,0a.89.89,0,0,0-.23.1l.28.46Z" transform="translate(-1.02 -4.23)"/><path class="cls-2" d="M194.79,50.32a.88.88,0,0,0,.05.15l.79-.33h0l0-.08h0v0l0,0v0h0a.54.54,0,0,0-.07-.13l-.74.43,0,.08Z" transform="translate(-1.02 -4.23)"/><path class="cls-2" d="M187.22,126c.07,0,.23.07.29.45a.47.47,0,0,1,0,.23h0l.71.49a1.32,1.32,0,0,0,.21-.77v-.06a1.5,1.5,0,0,0-.5-1h0a1.35,1.35,0,0,0-.43-.22l-.11.42h0l-.11.42Z" transform="translate(-1.02 -4.23)"/><path class="cls-2" d="M189.27,78.26l.59-.63h0l0,0c-.23-.26-.24-.72-.26-2v-.24l-.11-.07-.74-1.07v.68h0v.72C188.71,77.07,188.73,77.75,189.27,78.26Z" transform="translate(-1.02 -4.23)"/><path class="cls-2" d="M220.09,247.92h0l0-.06a.63.63,0,0,0,.1-.12h0l0-.08-.27-.15.28.14-.39-.19h0l-.38-.2h0l0,.05-.1.12h0Z" transform="translate(-1.02 -4.23)"/><path class="cls-2" d="M84.88,110.12v0h0l.86,0a1,1,0,0,0-.11-.46l-.77.39h0A.43.43,0,0,1,84.88,110.12Z" transform="translate(-1.02 -4.23)"/><polygon class="cls-2" points="90.81 12.38 91.06 12.13 91.3 11.65 90.55 11.36 90.45 11.63 90.45 11.63 90.41 11.73 90.31 11.69 90.41 11.73 90.24 12.17 90.81 12.38"/><path class="cls-2" d="M107.39,146.61h0l0,0a1.23,1.23,0,0,0-.19.2l.71.49h0l0,0h0l.11-.1h0Z" transform="translate(-1.02 -4.23)"/><path class="cls-2" d="M72.72,27.22h0s0,0,0,0h0l.43.75,0,0h0a.89.89,0,0,0,.34-.85h0l-.43,0h0l-.43,0a.29.29,0,0,1,0,.1Z" transform="translate(-1.02 -4.23)"/><polygon class="cls-2" points="80.62 45.23 80.33 45.06 80.38 45.01 80.33 45.06 80.25 45.02 80.25 45.02 80.25 45.02 79.87 44.8 79.53 45.39 80.16 46.02 80.62 45.23"/><path class="cls-2" d="M107.54,102.82h0l0-.43a.79.79,0,0,0-.66.62l.75.22Z" transform="translate(-1.02 -4.23)"/><path class="cls-2" d="M103.6,202h0l.09.26h0l.1,0h0l0-.24.52.05V202h0v0h0a.38.38,0,0,0,0-.17h0a.73.73,0,0,0-.28-.32l-.16-.08-.16,0h-.11l-.07,0,.17.55Z" transform="translate(-1.02 -4.23)"/><path class="cls-2" d="M94.38,52.51h0a.18.18,0,0,1,.05-.07l.07-.11-.73-.46h0l0,.06-.09.13h0Z" transform="translate(-1.02 -4.23)"/><path class="cls-2" d="M92.49,5.22h.07a.79.79,0,0,0,.55-.49h0l0-.07h0l-.74-.26h0Z" transform="translate(-1.02 -4.23)"/><path class="cls-2" d="M95,20.08,95,20a1.26,1.26,0,0,0-.07-.53,1,1,0,0,0-.12-.23l0,0-.32.29.31-.3-.56.51-.08.06h0a.25.25,0,0,1,0,.1.31.31,0,0,1,0,.09h0l.56.66A1.05,1.05,0,0,0,95,20.08Z" transform="translate(-1.02 -4.23)"/><path class="cls-2" d="M1.11,52.6l0,0-.07,0,.21.84h0a1,1,0,0,0,.6-.49l-.38-.2.38.2a1.33,1.33,0,0,0,.1-.24l-.84-.21S1.12,52.58,1.11,52.6Z" transform="translate(-1.02 -4.23)"/><path class="cls-2" d="M157.87,45.14h0l-.05,0a0,0,0,0,1,0,0s0,0,0,0h0l.31.29h0l.32.3,0,0,0,0,.07-.08h0Z" transform="translate(-1.02 -4.23)"/><path class="cls-2" d="M152.36,193h0l-.06-.12h0a.79.79,0,0,0-.21-.24l-.53.69h0s.06.09.06.34a.64.64,0,0,1-.07.26h0l.33.27.34.26.07-.09h0a1.24,1.24,0,0,0,.1-.2h0a3.1,3.1,0,0,0,.09-.39v-.08A2.08,2.08,0,0,0,152.36,193Z" transform="translate(-1.02 -4.23)"/><path class="cls-2" d="M144,132.61h0l-.06,0,0,0-.07,0-.05,0,.46.73h0l.07,0a.93.93,0,0,0,.19-.11h0l.05,0h0l-.55-.66Z" transform="translate(-1.02 -4.23)"/><path class="cls-2" d="M142.66,54.89l-.08.43.06-.43h-.1v.43h0v.28h0l0,.15,0-.11v0h0v-.07l.59-.37A.72.72,0,0,0,142.66,54.89Z" transform="translate(-1.02 -4.23)"/><path class="cls-2" d="M148.71,67.2a1,1,0,0,0-.1-.24l-.73.46s0,0,0,.07,0,.12.07.17h0v.21h0v.43h0a.76.76,0,0,0,.62-.31,1.16,1.16,0,0,0,.17-.44l0-.14-.07-.13Z" transform="translate(-1.02 -4.23)"/><path class="cls-2" d="M148.36,159h0a1,1,0,0,0-.68-.78l-.27.82h0s0,0,0,0,.07.12.05.34a.27.27,0,0,1-.05.12h0l.51.69h0a.41.41,0,0,0,.1-.09,1.11,1.11,0,0,0,.28-.54v-.07a1.83,1.83,0,0,0,0-.53Z" transform="translate(-1.02 -4.23)"/><path class="cls-2" d="M145.89,148.28h0l-.07,0-.19.09h0l0,0h0l.49.71.07,0a.69.69,0,0,0,.15-.07h0Z" transform="translate(-1.02 -4.23)"/><path class="cls-2" d="M177.61,153.21l-.09,0-.21-.06-.05.26,0,0-.13.13v.18h.12l-.06.32.14,0,.67.25v-.44l.34-.35-.63-.24Z" transform="translate(-1.02 -4.23)"/><path class="cls-2" d="M169.59,107.32h0a1,1,0,0,0,.23-.48v-.07a1.12,1.12,0,0,0-.48-1h0l-.47.73,0,0a.24.24,0,0,1,.07.22s0,.08,0,.08v.43h0v0h0v.43h0v-.43h0v.43h0a.84.84,0,0,0,.64-.29Z" transform="translate(-1.02 -4.23)"/><path class="cls-2" d="M182.68,168.2v0a2.07,2.07,0,0,0-.11-.61h0a.93.93,0,0,0-.52-.55l-.16.4h0l-.17.4s0,0,.05.08h0a1.19,1.19,0,0,1,0,.29.71.71,0,0,1,0,.17l.83.25h0v0h0c0-.1,0-.2.06-.33Z" transform="translate(-1.02 -4.23)"/><path class="cls-2" d="M179.32,157.22l0,0s0,0,0-.08v0l-.86.14h0v0a.94.94,0,0,0,.81.81h.12l.1,0,.09,0h0l-.2-.66Z" transform="translate(-1.02 -4.23)"/><path class="cls-2" d="M179.74,49.63h0l0,0h0l.06,0h0v.14h0l-.06.72h.07a.79.79,0,0,0,.74-.59l0-.06V46.94l-.84,2.66A.08.08,0,0,0,179.74,49.63Z" transform="translate(-1.02 -4.23)"/><path class="cls-2" d="M176.37,133.7h-.07l-.06.86c.09,0,.09,0,.1.09l.86-.12A1,1,0,0,0,176.37,133.7Z" transform="translate(-1.02 -4.23)"/><path class="cls-2" d="M174.57,10.83l.05,0,.09-.09a.44.44,0,0,0,.09-.11l-.35-.25.11-.11-.11.11-.35-.24.26.26-.27-.26h0l0,0a.57.57,0,0,0-.11.11l-.28.3.61.61Z" transform="translate(-1.02 -4.23)"/><path class="cls-2" d="M176.28,12.35l-.08,0h-2.09l1.83.83s0,0,0,0h0l.16,0v0l.64.11A.78.78,0,0,0,176.28,12.35Z" transform="translate(-1.02 -4.23)"/><path class="cls-2" d="M172,75h0a.74.74,0,0,0-.82-.61h-.09l-.11,0h0l-.11.07.37.53v.08h.05l.07.09h0l0-.09h0l0,.08v0l0-.08.66,0h0A.17.17,0,0,1,172,75Z" transform="translate(-1.02 -4.23)"/><path class="cls-2" d="M175.76,63.89h0l-.13.21-.4-.31v0a.4.4,0,0,0-.07.13.73.73,0,0,0,0,.38l0,.2.49.3.45-.74-.32-.19Zm.21.3a.2.2,0,0,0,0,0l0,.07-.12-.1Z" transform="translate(-1.02 -4.23)"/><path class="cls-2" d="M117.78,236.23a.74.74,0,0,0-.47-.49l-.14.41.12-.42-.13.42h0l.13-.42-.23,0h0v.44h0v-.44H117l0,.43h0l0,.41h0l0,0,0,0h0a.66.66,0,0,1,0,.18v0h0l0,0v0h.06l.45.67h0a.93.93,0,0,0,.21-.23h0a1,1,0,0,0,.13-.39v-.11A2,2,0,0,0,117.78,236.23Zm-.73-.1Zm0,0h0Zm0,.42v-.41h0v.41Zm0,0h0l0-.41h0v0h0v.4Zm0-.09.09-.29h0l-.09.29Z" transform="translate(-1.02 -4.23)"/><path class="cls-2" d="M117.56,11.71h0l0,0,0,0,0,.05,0,0,.72.48h0l0,0h0a.85.85,0,0,0,.18-.28v0l-.83-.23S117.55,11.72,117.56,11.71Z" transform="translate(-1.02 -4.23)"/><path class="cls-2" d="M126.58,40.87l-.12,1.54s0,.05,0,.05h0l0,0h0l.05.18.18.64h0l.07,0a.84.84,0,0,0,.53-.76v-.14Z" transform="translate(-1.02 -4.23)"/><path class="cls-2" d="M126.15,166.5a1,1,0,0,0-.17-.2h0a.41.41,0,0,0-.11-.07h-.11l-.18.65h0l0,0h0l0,.16a.41.41,0,0,1-.11-.06h0l0,.06a1.13,1.13,0,0,0,.1.13h0l.17-.16.08.08h0l.32.29a.69.69,0,0,0,.18-.49v-.16l-.1-.13Z" transform="translate(-1.02 -4.23)"/><path class="cls-2" d="M123.82,23a1.34,1.34,0,0,0-.11-.14l0-.05h0l-.49.49h0v0h0l-.11.11s0,0,0,.06a.64.64,0,0,0,.1.13h0l.08-.06.19.55a.76.76,0,0,0,.48-.74l0-.18-.12-.13Z" transform="translate(-1.02 -4.23)"/><path class="cls-2" d="M143,91.29h0l-.34.26h0l0,0-.07-.25h0l-.11,0h0l.05.3-.09.07h.1v.06h0l.08.42h.08l.06,0h0l0,0,.32-.09v-.34a.59.59,0,0,0-.08-.42Z" transform="translate(-1.02 -4.23)"/><path class="cls-2" d="M140.94,59.11h0l-.13-.12.06,0h0l-.07,0-.11,0-.11-.06h0l-.39-.18,0,0v0a.71.71,0,0,0,.1.72h0a.84.84,0,0,0,.36.27l.17.08.17-.08.07,0a.77.77,0,0,0,.37-.19Z" transform="translate(-1.02 -4.23)"/><path class="cls-2" d="M142.24,91.66h0v0h0v0h0v.13h0S142.25,91.68,142.24,91.66Z" transform="translate(-1.02 -4.23)"/><path class="cls-2" d="M128,142.73l-.27.28.27-.29a.65.65,0,0,0-.23-.15l-.29.7-.08.07a.61.61,0,0,1,0,.11.1.1,0,0,1,0,0h0s0,0,0,0v0h0l.34.75,0,0a.57.57,0,0,0,.13-.08h0a.83.83,0,0,0,.21-.28h0a1,1,0,0,0,.08-.46v-.09A1.08,1.08,0,0,0,128,142.73Zm-.56.64,0,0,0,0,0,0,.06-.07Z" transform="translate(-1.02 -4.23)"/><path class="cls-2" d="M130.32,115.79a.28.28,0,0,1,0,.09h0l.85.14a1.1,1.1,0,0,0,0-.18v0h0l-.86,0Z" transform="translate(-1.02 -4.23)"/><path class="cls-2" d="M137.28,57.16h0l0-.07-.08-.13h0l-.07-.09-.66.56a.16.16,0,0,1,0,.07l.06.11,0,0h0l.36-.24h0l.36-.23Z" transform="translate(-1.02 -4.23)"/><path class="cls-2" d="M129,101.83h0a.84.84,0,0,0-.44-.43l-.17.39h0l-.17.4a1.31,1.31,0,0,1,0,.35.44.44,0,0,1-.07.21h0l.31.81,0,0a1,1,0,0,0,.58-.92v-.07A2.06,2.06,0,0,0,129,101.83Z" transform="translate(-1.02 -4.23)"/><path class="cls-2" d="M132.49,79.17,132.2,79l-.32-.12-.11.42h0l0,.16h0l.06,0h-.07l-.05.22.18.07.08,0h0l.1-.25.46.17h0a.76.76,0,0,0,0-.37Z" transform="translate(-1.02 -4.23)"/><path class="cls-2" d="M134.81,127.69h0l-.05-.06-.06-.1h0l-.08-.09v0l-.3.32.28-.33-.4.46L134,128l0,.06h0l0,0,.08.1.33-.28h0l.33-.28Z" transform="translate(-1.02 -4.23)"/><path class="cls-2" d="M153.14,47.37h0a1,1,0,0,0-.44-.28l-.22-.06-.17.13-.07.05-.13.08h0l-.08.07h0l.45.47h0l.13.13.07-.05,0,0,.14,0h0l.42.1a.43.43,0,0,0,0-.11.09.09,0,0,0,0-.05h0a.72.72,0,0,0-.18-.52Z" transform="translate(-1.02 -4.23)"/><path class="cls-2" d="M201.67,115.86l-.54-.19-.27.82h0l.27.09.24.09.36.13.25.08.26-.82c-.14,0-.28-.1-.42-.15Z" transform="translate(-1.02 -4.23)"/><path class="cls-2" d="M203,46.62h0l0,0h0a.32.32,0,0,1,0-.09h0l.12,0v0l.69.11v0a.07.07,0,0,0,0,0,.75.75,0,0,0-.58-.77l-.06,0h-2.93l2.74.84Z" transform="translate(-1.02 -4.23)"/><path class="cls-2" d="M204.7,31.13l-.31-.31.31.31.05-.07.06-.06h0l.08-.14-.74-.36,0,0h0v0h0l0,0,0,0,0,0,.06.06.26.73a.87.87,0,0,0,.26-.16Zm-.49-.55.24.17-.24-.17Zm0,.07h0l.43.37Z" transform="translate(-1.02 -4.23)"/><path class="cls-2" d="M204.28,152.55h0v0h0a.84.84,0,0,0-.79-.56h-.12a1.25,1.25,0,0,0-.35.16l.44.64v0h0v0l.07,0h0l.33,0-.32,0,.75-.1Z" transform="translate(-1.02 -4.23)"/><polygon class="cls-2" points="198.49 111.58 198.35 111.49 198.16 111.28 197.89 111.36 197.05 111.66 197.54 111.99 197.52 112.16 198.37 112.33 198.4 112.09 198.75 111.96 198.48 111.64 198.49 111.58"/><path class="cls-2" d="M198.12,26.76a.79.79,0,0,0,.8-.68h0l-.43-.08h0l-.37,0v.37h0V26h0l0,.38h0l0,.43Zm0-.43Z" transform="translate(-1.02 -4.23)"/><path class="cls-2" d="M196.93,241.72l0,.06a1.63,1.63,0,0,0-.11.17l.24.13-.11,0,.11,0,.53.27h0l.06-.08a.41.41,0,0,1,0-.09l.13-.21-.46-.91Z" transform="translate(-1.02 -4.23)"/><path class="cls-2" d="M197.29,53.8h0s0,0,0-.06l-.07-.1h0l-.09-.11-.62.6,0,.06.09.14h0l.69-.52Z" transform="translate(-1.02 -4.23)"/><path class="cls-2" d="M197.2,238.87l.05.32h0l.07.42h0l.1,0a.69.69,0,0,0,.47-.67h0v0h0l-.69,0Z" transform="translate(-1.02 -4.23)"/><path class="cls-2" d="M204.65,171.08h0l-.05,0a1.41,1.41,0,0,0-.14.18h0a1,1,0,0,0-.07.15h0l.84.23a.3.3,0,0,1,0,.06h0l0,0,.11-.13h0Z" transform="translate(-1.02 -4.23)"/><path class="cls-2" d="M199,120.63s0-.08,0-.12h0a.56.56,0,0,0,0-.12v0l-.39.17h0l-.2.09-.2.07h0v0s0,0,0,0,0,.06,0,.08,0,0,0,.07h0l.83-.23h0S199,120.65,199,120.63Z" transform="translate(-1.02 -4.23)"/><path class="cls-2" d="M206.48,224l-.12.54s0,.05,0,.08a1.25,1.25,0,0,0-.05.3h0v0h.33l0,.06,0-.06h.53l0-.12a.36.36,0,0,0,0-.1l.07-.29-.25-.16Zm.24.95h0Z" transform="translate(-1.02 -4.23)"/><path class="cls-2" d="M209,101.45v0a.65.65,0,0,0-.31-.46l-.32.55h-.22c0,.07,0,.08,0,.1h0l.36.78.06,0a.94.94,0,0,0,.51-.85Zm-.76.23a0,0,0,0,1,0,0h0a.25.25,0,0,1-.08-.09l.17,0Z" transform="translate(-1.02 -4.23)"/><polygon class="cls-2" points="209.51 274.77 209.53 274.76 209.53 274.76 209.54 274.76 209.53 274.76 209.51 274.77"/><polygon class="cls-2" points="209.54 274.76 209.55 274.75 209.55 274.75 209.54 274.76"/><polygon class="cls-2" points="182.34 181.16 182.34 181.16 182.34 181.16 182.39 181.14 182.39 181.14 182.34 181.16"/><path class="cls-2" d="M206.12,19.37l.65.56,0,0a1.39,1.39,0,0,0,.29-.55h0a1.76,1.76,0,0,0,.07-.61,4.59,4.59,0,0,0-2-3l-.51.69a3.87,3.87,0,0,1,1.69,2.31.82.82,0,0,1-.16.58Z" transform="translate(-1.02 -4.23)"/><path class="cls-2" d="M208.51,124l0-.07,0-.07,0,0-.36.25h0l.35-.26-.34.24.34-.25-.35.26h0l-.27.19h0l0,0,0,0,0,0h0a.25.25,0,0,0,0,.07.8.8,0,0,0,.08.16h0l.08-.06,0,.16h0l.09.42a.65.65,0,0,0,.32-.16h0a.83.83,0,0,0,.25-.55l0-.16-.09-.13Zm-.72.27.08,0v.05Zm0,0h0l.28-.19h0Z" transform="translate(-1.02 -4.23)"/><path class="cls-2" d="M207.4,169.91l-.21.71h0v.06l0,.06h0v.31l0,.43h0l.13,0h0a1,1,0,0,0,.6-.44l0-.07,0-.08A.79.79,0,0,0,207.4,169.91Z" transform="translate(-1.02 -4.23)"/><path class="cls-2" d="M195.52,69.7s-.05-.1-.09-.16h0a.51.51,0,0,0-.21-.2h-.08l-.19.59-.05,0h0l.05,0-.07.21a.25.25,0,0,1-.15-.1h0l0,.06a.64.64,0,0,0,.08.14h0l.27-.18.36.32a.74.74,0,0,0,.13-.21l.09-.21-.12-.19A.33.33,0,0,1,195.52,69.7Z" transform="translate(-1.02 -4.23)"/><path class="cls-2" d="M184.16,185.06h0l-.4.16h0l.4-.17-.35.15.35-.15-.4.17h0l.4-.17-.34.15.34-.16h0l-.4.18h0l.4-.18-.36.16.36-.16-.4.17.39-.18-.39.18h0l.39-.18-.39.18h0l.39-.19-.35.17.34-.17h0l-.4.18h0l.4-.18a.78.78,0,0,0-.73-.47h-.18l-.06,0a.82.82,0,0,0-.51.61l.74.13v0l0,0h0l0,0h0l0,0h0l-.05,0h0l0,0h0l-.08,0h0l0,0h0l0,0h0l0,0h0l0,0h.06l0,0h0l0,0h0l0,0h0l.26-.1.4-.18-.4.16Zm-.41.15-.13.06.13-.06Zm0,0h0l-.24.12Zm-.24.12.25-.11h0l-.25.11Zm0,0,.25-.11h0l-.25.11Zm0,0,.25-.11h0l-.25.11Zm0,0h0l.25-.11h0Z" transform="translate(-1.02 -4.23)"/><polygon class="cls-2" points="186.34 147.92 186.19 147.58 185.4 147.92 185.4 147.92 185.4 147.92 185.54 148.26 186.34 147.92 186.34 147.92 186.34 147.92"/><path class="cls-2" d="M187,147.14l.08,0-.25-.83-.05,0-.08,0,.25.82H187Z" transform="translate(-1.02 -4.23)"/><path class="cls-2" d="M194.71,235.38l-.85,0,0,.08h0l0,0h0l.49.7a.77.77,0,0,0,.32-.53c0-.05,0-.1,0-.15Z" transform="translate(-1.02 -4.23)"/><polygon class="cls-2" points="183.12 180.79 183.11 180.79 183.11 180.79 183.12 180.79"/><polygon class="cls-2" points="182.34 181.16 182.34 181.16 182.34 181.16 182.34 181.16"/><polygon class="cls-2" points="185.99 136.72 185.99 136.71 185.98 136.71 185.84 136.47 185.54 136.81 185.22 136.89 185.29 137.29 185.38 137.74 185.55 137.7 185.59 137.76 185.93 137.65 186.38 137.41 186.29 137.25 186.91 136.5 185.99 136.72"/><path class="cls-2" d="M191.6,19.26h0l-.45-.74h0l-.06,0-.06,0-.17.1-.05.05.31.31h0l-.31-.31-.05.06.34.26h0l.07.05.25.24,0,0h0l0,0h0l.14-.07Zm-.48-.22h0l0,0Z" transform="translate(-1.02 -4.23)"/><path class="cls-2" d="M193.54,138.82h-.61v.44h0l-.35-.36-.05.05.33.37-.26.2h0l.15.19.15.21.31-.25h.41l.06-.86Z" transform="translate(-1.02 -4.23)"/><polygon class="cls-2" points="189.73 165.62 189.42 165.42 188.94 166.14 189.26 166.34 189.26 166.34 189.26 166.34 189.73 165.63 189.73 165.62 189.73 165.62"/><path class="cls-2" d="M141.52,198.84h0l0,0h0l.14.41-.15-.41-.17.08h0l.42.76h0l.06,0h0l.11,0,.07,0-.28-.47Z" transform="translate(-1.02 -4.23)"/><path class="cls-2" d="M47,55.25h0v0h0l-.66.31h-.11a.06.06,0,0,1,0,0h0l0,0h0v0h0l0,0h0a.09.09,0,0,1,0,0h0l.17.74.16-.06h0a.84.84,0,0,0,.48-.7v-.12A1.55,1.55,0,0,0,47,55.25Z" transform="translate(-1.02 -4.23)"/><path class="cls-2" d="M52.21,61.94h0l-.05,0h0a1,1,0,0,0-.22-.17h0l-.4.76.06.06.12.09h0l.5-.7Z" transform="translate(-1.02 -4.23)"/><path class="cls-2" d="M55.08,98.3H55v0h0v0l-.31,0h0l-.43,0h0a.79.79,0,0,0,.59.79l.09,0H55v-.42h0v.43h.07L55,98.38l0-.08Zm-.1.34v0Z" transform="translate(-1.02 -4.23)"/><path class="cls-2" d="M53.62,172.92l.08.42h0l.07.34-.07,0h0l.07,0h0l.34-.11.41-.14A.78.78,0,0,0,53.62,172.92Z" transform="translate(-1.02 -4.23)"/><path class="cls-2" d="M52.26,88.44l-.32.79h0a.58.58,0,0,1,.11.25.5.5,0,0,1,0,.12h0l.68.52a1.06,1.06,0,0,0,.21-.64v-.1A1.14,1.14,0,0,0,52.26,88.44Z" transform="translate(-1.02 -4.23)"/><path class="cls-2" d="M55.67,70.1h0l-.31.32-.1-.09h0l-.11.14h0l.09.08-.31.26h0l.18.19.38.35.67-.79Z" transform="translate(-1.02 -4.23)"/><path class="cls-2" d="M66.07,88.6l-.78-2.12-.08,2.18a.21.21,0,0,0,0,.06h0a.12.12,0,0,1,0-.06h0l.06.14-.1,0,.1,0,.11.25h0l.18.4.09,0a.84.84,0,0,0,.36-.7h0Z" transform="translate(-1.02 -4.23)"/><path class="cls-2" d="M62,64.79h-.17l-.12.12.3.3v.38h0v.06h.16l.13-.13.48-.11h0a.64.64,0,0,0,0-.07A.77.77,0,0,0,62,64.79Z" transform="translate(-1.02 -4.23)"/><polygon class="cls-2" points="65.48 107.1 65.51 106.87 65.51 106.87 65.48 107.1"/><path class="cls-2" d="M56.64,64.76a.73.73,0,0,0-.2.19.86.86,0,0,0-.1.16h0l.39.17h0l.31.14.09,0h0Z" transform="translate(-1.02 -4.23)"/><path class="cls-2" d="M56.16,214.34h0l-.39.18a.86.86,0,0,0,.29.36h0l.51-.69a.05.05,0,0,1,0,0Z" transform="translate(-1.02 -4.23)"/><path class="cls-2" d="M59,226.37a1.14,1.14,0,0,0-.1-.19h0l-.71.5a.21.21,0,0,1,0,.11h0v0h.13l0,.32h0l.07.43.11,0h.07a.78.78,0,0,0,.43-.64v-.07A1.5,1.5,0,0,0,59,226.37Zm-.76.39,0,0h0v0Z" transform="translate(-1.02 -4.23)"/><path class="cls-2" d="M59.67,67.67l-.1-.12h0a.9.9,0,0,0-.18-.15l-.2.39h0l-.11.19h0v0h0l-.09.16h0l0,.06.11.14h0l0,.52h.15a.67.67,0,0,0,.46-.38h0a1.13,1.13,0,0,0,.1-.34l0-.2-.13-.15A.1.1,0,0,1,59.67,67.67Z" transform="translate(-1.02 -4.23)"/><path class="cls-2" d="M40.41,109.08h0a.43.43,0,0,0,0,0h0l-.77.11h0l.26.8h0l.13-.06a.77.77,0,0,0,.39-.79Z" transform="translate(-1.02 -4.23)"/><path class="cls-2" d="M14.43,106.52s0,0,0-.06l-.86.13a.92.92,0,0,0,.34.6l.54-.67h0Z" transform="translate(-1.02 -4.23)"/><path class="cls-2" d="M9.31,6s0,0,0,.22l.43,0h0l.43,0a1.18,1.18,0,0,0-.32-.8Z" transform="translate(-1.02 -4.23)"/><path class="cls-2" d="M9.25,83.24l-.17.05-.1.15,0,.07-.08.11h0l-.06.1h0l.54.24h0l.25.11,0-.06.1-.14h0l-.19-.11.38-.37A.72.72,0,0,0,9.25,83.24Z" transform="translate(-1.02 -4.23)"/><path class="cls-2" d="M11.48,116.32h-.43l-.43,0a.35.35,0,0,1,0,.06h0l0,0h0l.35.79a.84.84,0,0,0,.48-.84Z" transform="translate(-1.02 -4.23)"/><path class="cls-2" d="M67,110.67l0,0-.31.31h0l.31-.31,0,0h0a.56.56,0,0,0-.31-.12h-.16l.1.59h0l-.19.19.14-.13,0-.05h0v0h0v.07l0,.16,0-.27Zm-.34.28-.09.09.09-.09Z" transform="translate(-1.02 -4.23)"/><path class="cls-2" d="M38.45,55.65a.89.89,0,0,0,.42.78l.45-.74a.15.15,0,0,1,0-.06Z" transform="translate(-1.02 -4.23)"/><path class="cls-2" d="M33.62,64.38a.37.37,0,0,1,.18-.14l-.17-.4h0l.18.39-.18-.39h0l-.17-.4h0l.18.39h0l-.18-.39a1.27,1.27,0,0,0-.47.34h0a.47.47,0,0,0-.06.09h0Z" transform="translate(-1.02 -4.23)"/><path class="cls-2" d="M34.2,90a.88.88,0,0,0-.7-.38v.43h0v.43l0,0,.73-.46h0Z" transform="translate(-1.02 -4.23)"/><path class="cls-2" d="M24.39,84.63h-.15l.13,0h-.13l-.73-.07a.76.76,0,0,0,0,.15.87.87,0,0,0,.59.75l.07,0h2.51Z" transform="translate(-1.02 -4.23)"/><path class="cls-2" d="M105.14,94.06l-.07-.13-.94-.93.16,1.26a.2.2,0,0,1,.12-.13l0,.86h0l.12,0a.7.7,0,0,0,.43-.23.77.77,0,0,0,.16-.61Zm-.73.07h0v.21h0v-.1h0v-.11Z" transform="translate(-1.02 -4.23)"/><polygon class="cls-2" points="102.05 83.95 102.05 83.95 101.88 83.61 101.88 83.61 101.88 83.61 101.11 84.01 101.28 84.35 101.67 84.15 101.67 84.15 101.67 84.15 101.67 84.15 102.05 83.95 102.05 83.95"/><path class="cls-2" d="M109.62,22.92a1.65,1.65,0,0,0-.15-.25h0l0,0h0l-.17.13h-.11l-.09,0,0,.08-.35.28.08.15.24.45.29-.15H110l-.35-.63Z" transform="translate(-1.02 -4.23)"/><path class="cls-2" d="M114,198.44l.09-.09-.09.09-.55-.12h0v0h0l0,.05s0,.09,0,.13l-.06.2.12.18.56.56.21-.68a.24.24,0,0,1,0-.08l0-.05,0,0,0-.13-.22,0Z" transform="translate(-1.02 -4.23)"/><path class="cls-2" d="M113.64,128.88h0l-.23-.83a1,1,0,0,1-.56-.05l-2.38-.74,1.9,1.42.13.2h.3a2.48,2.48,0,0,0,.45.05,1.14,1.14,0,0,0,.37-.05Z" transform="translate(-1.02 -4.23)"/><path class="cls-2" d="M112.49,151.75a.87.87,0,0,0-.09-.32h-.05v0h-.06l-.3.31h0l-.2.2,0,0h0l0,0h0l0,0h0l0,0-.09.1h0a.21.21,0,0,1,0-.07h0s0,.05,0,.08a1,1,0,0,0,0,.17h0L112,152l.06.06h0l.31.3a.59.59,0,0,0,.13-.18l.08-.15,0-.16S112.49,151.78,112.49,151.75Z" transform="translate(-1.02 -4.23)"/><path class="cls-2" d="M112.08,147.37h0s0,0,0,.09a.08.08,0,0,0,0,0h0l0,.41h0l0,.43h.21a.69.69,0,0,0,.29-.12h0a.94.94,0,0,0,.34-.54v-.06a1,1,0,0,0-.14-.67Z" transform="translate(-1.02 -4.23)"/><path class="cls-2" d="M79.54,20.55l-.63.59h0s0,0,0,0,0,.1,0,.11h0l0,.86H79a1,1,0,0,0,.77-1v-.09A1,1,0,0,0,79.54,20.55Z" transform="translate(-1.02 -4.23)"/><polygon class="cls-2" points="79.51 132.68 79.51 132.68 79.51 132.68 79.51 132.68"/><polygon class="cls-2" points="79.51 132.68 79.51 132.68 79.51 132.68 79.51 132.68"/><path class="cls-2" d="M81.32,136h0a.91.91,0,0,0-.17-.23h0l-.09-.07-.48.71s0,0,0,.33a.67.67,0,0,1-.06.23h0l.21.37h0l.22.38a.83.83,0,0,0,.36-.42,1.55,1.55,0,0,0,.12-.46v-.05a1.58,1.58,0,0,0-.14-.76Z" transform="translate(-1.02 -4.23)"/><path class="cls-2" d="M74.2,187.22l-.85-4v4.21a1.09,1.09,0,0,0,.81.92h.16l.06-.86S74.26,187.47,74.2,187.22Z" transform="translate(-1.02 -4.23)"/><path class="cls-2" d="M81.05,59.42h0l0,.06h0a1.42,1.42,0,0,0-.13.22h0l.8.34h0l0-.06.09-.14h0Z" transform="translate(-1.02 -4.23)"/><path class="cls-2" d="M74.14,59.58h0a.88.88,0,0,0-.5-.16h-.19l-.13.14,0,0a.76.76,0,0,0-.09.09h0l0,0h0l.48.42h0v0l.14.13s0,0,0-.05l.13-.11h0l0,0H74l.42,0h0A.67.67,0,0,0,74.14,59.58Z" transform="translate(-1.02 -4.23)"/><path class="cls-2" d="M97,184h0v.05h0a.05.05,0,0,1,0,0Z" transform="translate(-1.02 -4.23)"/><path class="cls-2" d="M97.57,184.67a.83.83,0,0,0,.29-.64h0a.06.06,0,0,0,0,0h-.37l.37,0L97,184h0Z" transform="translate(-1.02 -4.23)"/><path class="cls-2" d="M93.49,176.87l.11.8h0l.69-.48A.79.79,0,0,0,93.49,176.87Z" transform="translate(-1.02 -4.23)"/><path class="cls-2" d="M96.6,151.2l-1,.55a3.93,3.93,0,0,1-1.94.58,2.25,2.25,0,0,1-1.57-.58l-.29.32h0l-.3.31a3.13,3.13,0,0,0,2.16.81,4.8,4.8,0,0,0,2.37-.69h0l.06,0h0l.07,0v0l2.63-2.24-2.27,1.13Z" transform="translate(-1.02 -4.23)"/><path class="cls-2" d="M3.34,230.16h0a.25.25,0,0,1,0-.07.74.74,0,0,0-.3-.43l-.46.72,0,0,0,0h0s0,0,0,0l0,.06a1.11,1.11,0,0,0,.07.16l.77-.4Z" transform="translate(-1.02 -4.23)"/><path class="cls-2" d="M253.72,38.63l.29-.18-.28-.84-.46.28-.06,0c-.06,0-.14.07-.22.13l.24.3-.14,0,.14,0,.29.38.06,0Z" transform="translate(-1.02 -4.23)"/><polygon class="cls-2" points="243.03 239.33 243.03 239.33 243.03 239.33 243.42 240.1 243.43 240.1 243.43 240.1 243.72 239.95 243.32 239.18 243.03 239.33"/><path class="cls-2" d="M254.78,205.61h0v0l-.06-.05-.34-.69-.11.06.23.36-.23-.36,0,0-.07.06.29.32-.3-.32,0,0a.83.83,0,0,0-.15.23l.7.3Zm-.14-.2-.15-.2.15.21Z" transform="translate(-1.02 -4.23)"/><path class="cls-2" d="M256.88,71.93h.21a2.06,2.06,0,0,0,1-.19h0a1.17,1.17,0,0,0,.5-.49l-.38-.21.38.2-.39-.2h0l.38.2,0,0-.39-.19.39.18-.78-.37.38.18-.38-.18h0l.39.2h0l-.38-.2a.23.23,0,0,1-.09.11h0a1,1,0,0,1-.61.12h-.27a2.58,2.58,0,0,1-.5,0h0l-.12,0-.43.75s0,0,0,0h0l.13.06H256a2.74,2.74,0,0,0,.85.09Z" transform="translate(-1.02 -4.23)"/><path class="cls-2" d="M237.67,62.53h.07a.57.57,0,0,0,.18,0l-.17-.64,0-.1h-.05l0-.08h0v.07l-.27,0h0l-.43,0v0a.79.79,0,0,0,.65.79Z" transform="translate(-1.02 -4.23)"/><path class="cls-2" d="M236.41,174.64H236v.05a.39.39,0,0,1,0,.1h0l.26.35.27.34a1,1,0,0,0,.21-.27h0a1.91,1.91,0,0,0,.1-.27l0-.06a1.62,1.62,0,0,0,0-.21Z" transform="translate(-1.02 -4.23)"/><path class="cls-2" d="M238.31,176.93a1.11,1.11,0,0,0-.34-.59h0l-.55.66a.26.26,0,0,1,.08.17,2.05,2.05,0,0,1,.05.37,1.13,1.13,0,0,1-.08.41h0l.75.41a1.76,1.76,0,0,0,.19-.81v0h0A2.89,2.89,0,0,0,238.31,176.93Z" transform="translate(-1.02 -4.23)"/><polygon class="cls-2" points="237.71 234.54 237.71 234.54 237.71 234.54 237.71 234.54"/><path class="cls-2" d="M235,167l-.12-.51h0s0-.06,0-.09l-.81.25h0l.11.69,0,.27.11,0,0,.21.85-.17-.06-.24.3-.29Z" transform="translate(-1.02 -4.23)"/><path class="cls-2" d="M239,132.12l-.43.74,0,0a1.49,1.49,0,0,1,.56,1.26,2,2,0,0,1-.16.77.54.54,0,0,0-.05.11h0l.77.37a2.65,2.65,0,0,0,.3-1.27A2.27,2.27,0,0,0,239,132.12Z" transform="translate(-1.02 -4.23)"/><polygon class="cls-2" points="262.6 142.76 262.71 142.75 262.71 142.75 262.6 142.76"/><path class="cls-2" d="M264.35,147.34h0a.57.57,0,0,0,.13-.33h0v0h0a.28.28,0,0,0,0-.09l-.43.06.43-.07-.43.06h0l-.18,0h-.24l.16,0h.09l.48.37Z" transform="translate(-1.02 -4.23)"/><polygon class="cls-2" points="254.95 147.9 255.38 147.91 255.32 148.31 255.35 148.31 255.38 147.91 255.44 147.91 255.76 148.1 256.11 147.51 254.95 147.42 254.95 147.9"/><path class="cls-2" d="M261.86,67.56l0,0h0v0l-.18,0,.13-.1h0l-.28-.69h0a.55.55,0,0,0-.22.14h0a1.09,1.09,0,0,0-.27.46l0,.06a.7.7,0,0,0,.13.56l.51-.41.2.06h0a.61.61,0,0,1,.05-.11Z" transform="translate(-1.02 -4.23)"/><path class="cls-2" d="M257.4,115.09l-.07,0-.28-.15-.32.81h0l0,0,.1.06h0l.07,0h0l.44-.75Z" transform="translate(-1.02 -4.23)"/><path class="cls-2" d="M125.72,259.11h0l0,.07a1.05,1.05,0,0,0-.12.21v0l.72.28.08,0h0l0-.06.08-.14h0Z" transform="translate(-1.02 -4.23)"/><polygon class="cls-2" points="222.15 88.44 222.15 88.44 222.15 88.44 222.15 88.44"/><path class="cls-2" d="M215.71,131.76h0l-.08.43h0l0,.26h0l0,.16h0l.09,0h.09v-.18l.16-.82-.15,0Z" transform="translate(-1.02 -4.23)"/><path class="cls-2" d="M223.6,91.93s0,0,0,0h0l-.13-.06h0l-.19,0h-.17l-.24,0h0l-.11,0,.28.81h.17v0h0Z" transform="translate(-1.02 -4.23)"/><path class="cls-2" d="M211.33,278.68l-.39.16.39-.16-.4.16h0l.4-.17-.08-.16h0a.76.76,0,0,0-.78-.36h-.08l-.06,0a.8.8,0,0,0-.48.57h0a.76.76,0,0,0,0,.15l.43,0h.31v0h0l0,0h0v0h0l.11,0h0l-.08,0h0l.1,0h0s0,0,0,0h0l0,0h0v0h0l.26-.09Zm-.65.26h0l.06,0,.19-.07h0l-.19.07-.06,0,.25-.1h0Z" transform="translate(-1.02 -4.23)"/><path class="cls-2" d="M212,70.72h0a.08.08,0,0,1,.06,0h0v.11h0v.32h0l0,.43h0a.82.82,0,0,0,.78-.61l0-.07v-2.6l-.84,2.38Z" transform="translate(-1.02 -4.23)"/><path class="cls-2" d="M214.5,203.54a1.71,1.71,0,0,0-.38-.69h0a1.1,1.1,0,0,0-.75-.32h0l-.22,0,.07.42h0l.06.43h.09c.07,0,.19,0,.31.37a.35.35,0,0,1,0,.07h0l.68.54h0a.35.35,0,0,0,0-.08h0a1.12,1.12,0,0,0,.13-.62v-.05Z" transform="translate(-1.02 -4.23)"/><path class="cls-2" d="M214.44,158h0l-.06,0-.06.05h0l0,0,.62.6.05-.05a.65.65,0,0,0,.12-.11h0Z" transform="translate(-1.02 -4.23)"/><path class="cls-2" d="M232.05,67.54l.62.61h0l0-.05a2.32,2.32,0,0,0,.35-.53l-.77-.39A1.48,1.48,0,0,1,232.05,67.54Z" transform="translate(-1.02 -4.23)"/><path class="cls-2" d="M234.58,220.13l0,0h0s0,0,0,0l-.11-.17-.67.55a.25.25,0,0,1,0,.07l.08.13.72-.47h0Z" transform="translate(-1.02 -4.23)"/><path class="cls-2" d="M231.86,142.63h0s0,0,0,.06a1.16,1.16,0,0,0-.13.2l.77.37,0,0h0l0,0,.09-.14h0Z" transform="translate(-1.02 -4.23)"/><path class="cls-2" d="M225.2,116.18a.69.69,0,0,0,.05.13h0l0,0h0l.38-.21h0l.38-.21-.43,0h0l-.43,0A.63.63,0,0,0,225.2,116.18Z" transform="translate(-1.02 -4.23)"/><path class="cls-2" d="M224.85,269.05h0l0,0s0,0,0,0h-.11v0l-.32,0h0l-.43,0v.05a.8.8,0,0,0,.64.68h3.6l-3.39-.84Z" transform="translate(-1.02 -4.23)"/><path class="cls-2" d="M229.07,85.68h0l-.06,0-.09.05,0,0h0l.47.72h0l.06,0,.2-.12h0l0,0h0l-.57-.65Z" transform="translate(-1.02 -4.23)"/><path class="cls-2" d="M229.71,73.37h0l-.21.16a3,3,0,0,1-1,.56c-.2,0-.59-.85-.82-1.37l-.07-.13-2.49-2.76L226.87,73l0,.06c.49,1.09.85,1.87,1.61,1.87a3.27,3.27,0,0,0,1.72-.9Z" transform="translate(-1.02 -4.23)"/><polygon class="cls-2" points="268.7 107.3 268.71 107.31 268.7 107.3 268.7 107.3"/><path class="cls-2" d="M137.81,259.34l-.06,0a2.13,2.13,0,0,0-.22-.18h0l0,0h0l-.49.71a.91.91,0,0,1,.16.13l.06.06h0l.29-.32h0l.29-.33Z" transform="translate(-1.02 -4.23)"/><path class="cls-2" d="M275,155.75h0a.93.93,0,0,1,0-.13l0-.07h0l-.27-.08.17-.38h0l-.12-.05-.49-.17-.14.51s0,.09,0,.14h0l0,.15.39.06,0,.1h0l.05,0h.05l.06-.12.32.05S275,155.77,275,155.75Z" transform="translate(-1.02 -4.23)"/><path class="cls-2" d="M270.42,111.25l.06,0v0h0a.61.61,0,0,0-.19-.32h0a.42.42,0,0,0-.14-.09.72.72,0,0,0-.48,0l-.24.07-.06.24a.19.19,0,0,1,0,.07,1.31,1.31,0,0,0-.06.25h0l.38,0h0l.07.08a.5.5,0,0,1-.06-.08h.12l-.06.07h0l.06-.07h.08l0,.12s0,0,0,0l-.1,0,0,0a.44.44,0,0,0,.27.09A.43.43,0,0,0,270.42,111.25Z" transform="translate(-1.02 -4.23)"/><path class="cls-2" d="M277.14,235.8h0s0,0,0-.05v0h.14v0l.29,0h0l.43,0a.82.82,0,0,0-.56-.69l-.08,0H275l2.11.83Z" transform="translate(-1.02 -4.23)"/><path class="cls-2" d="M281.31,170.74a10.57,10.57,0,0,1-.57,1.17l.75.43a12.45,12.45,0,0,0,.62-1.27Z" transform="translate(-1.02 -4.23)"/><polygon class="cls-2" points="280.02 168.94 279.57 168.66 279.26 168.49 278.98 168.77 278.79 169.19 279.12 169.39 279.25 169.19 279.13 169.4 279.3 169.1 279.38 169.17 279.43 169.45 280.48 169.24 280.02 168.94 280.02 168.94"/><path class="cls-2" d="M143.6,257.78h0s0,.05,0,.07a1.84,1.84,0,0,0-.06.29v0l.43,0h.43v0h0a.44.44,0,0,1,0-.1l0-.1h0Z" transform="translate(-1.02 -4.23)"/><path class="cls-2" d="M279.2,224.2l1.43-1-1.9.42,0,0h0l-.35.12-.05,0h0l-.44.15.37.36,0,0h0l.05.07h0v0l0,.23h.16l.13,0,1.35.54Z" transform="translate(-1.02 -4.23)"/></g></g></svg>