<?xml version="1.0" encoding="utf-8"?>
<!-- Generator: Adobe Illustrator 26.3.1, SVG Export Plug-In . SVG Version: 6.00 Build 0)  -->
<svg version="1.1" id="Layer_1" xmlns:v="https://vecta.io/nano"
	 xmlns="http://www.w3.org/2000/svg" xmlns:xlink="http://www.w3.org/1999/xlink" x="0px" y="0px" viewBox="0 0 154 36"
	 style="enable-background:new 0 0 154 36;" xml:space="preserve">
<style type="text/css">
	.st0{font-family:'PingFangHK-Regular-B5pc-H';}
	.st1{font-size:3.0055px;}
	.st2{fill:none;stroke:#000000;stroke-width:0.25;}
	.st3{fill:#3B4647;}
	.st4{fill:#26BB16;}
	.st5{fill:#A5A5A5;}
	.st6{fill:none;stroke:#000000;stroke-width:0.1;}
</style>
<g>
	<path d="M86.2,13.6c0.4,0,0.7,0,1.1,0c0.5-0.1,0.8,0.1,0.9,0.7c0.8,2.8,1.6,5.5,2.4,8.3c0.1,0.2,0.1,0.5,0.3,0.9
		c0.5-1.5,0.9-2.8,1.3-4.1c0.5-1.7,1.1-3.4,1.6-5.1c0.1-0.5,0.3-0.7,0.9-0.6c1.6,0.1,1.2-0.3,1.7,1.3c0.8,2.6,1.6,5.2,2.5,7.8
		c0.1,0.2,0.1,0.3,0.3,0.7c0.4-1.4,0.8-2.6,1.2-3.9c0.5-1.7,1-3.3,1.4-5c0.2-0.7,0.5-1,1.2-0.9c0.3,0,0.6,0,0.9,0
		c-0.4,1.4-0.9,2.8-1.3,4.2c-0.7,2.3-1.5,4.7-2.2,7c-0.2,0.5-0.3,0.7-0.9,0.7c-1.3,0-1.3,0-1.8-1.3c-0.8-2.5-1.6-4.9-2.4-7.4
		c-0.1-0.2-0.2-0.5-0.4-0.9c-0.7,2.2-1.3,4.2-2,6.3c-0.3,0.9-0.6,1.8-0.8,2.7c-0.1,0.5-0.4,0.6-0.8,0.6c-0.3,0-0.6,0.1-0.8,0
		c-0.3-0.1-0.6-0.3-0.7-0.5c-1.2-3.7-2.3-7.3-3.5-11C86.2,13.9,86.2,13.8,86.2,13.6z"/>
	<path d="M75.4,23.8c0,2.2,0,4.4,0,6.5c-0.6,0-1.1,0-1.7,0c0-5.5,0-11.1,0-16.7c0.5,0,1,0,1.6,0c0,0.5,0,1.1,0,1.7
		c0.2-0.1,0.3-0.1,0.3-0.2c1.5-1.8,3.5-2.1,5.7-1.6s3.4,2.1,4,4.2c0.8,2.9-0.5,6-2.8,7.3c-1.7,1-5.3,1-6.8-1
		C75.7,24,75.6,24,75.4,23.8z M83.7,19.3c0-0.1,0-0.4,0-0.6c-0.2-2-1.8-3.6-3.7-3.8c-2.3-0.2-4.1,0.9-4.6,3.1
		c-0.3,1.3-0.2,2.7,0.4,3.9c0.5,1,1.3,1.7,2.4,2C81.2,24.6,83.8,22.7,83.7,19.3z"/>
	<path d="M128.1,20.2c0.1,1.8,1.3,3.3,2.9,3.8c1.9,0.6,3.5,0.1,4.6-1.4c0.6-0.8,1.4-0.2,2-0.5c-0.5,2.4-3.3,4.2-6.7,3.5
		c-3.2-0.6-5.2-3.9-4.5-7.5c0.6-3.4,3.4-5.2,6.8-4.8c3.2,0.4,5.4,3.5,4.9,6.8C134.8,20.2,131.4,20.2,128.1,20.2z M136.2,18.5
		c-0.1-2.2-2.2-3.9-4.6-3.6c-1.9,0.2-3.7,2.1-3.4,3.6C130.9,18.5,133.6,18.5,136.2,18.5z"/>
	<path d="M71.2,20.2c-3.3,0-6.6,0-9.9,0c-0.1,1.5,1.1,3.2,2.6,3.7c1.8,0.6,3.8,0.3,4.9-1.4c0.5-0.8,1.3-0.2,1.9-0.4
		c-0.4,2.4-3.1,3.9-5.8,3.6c-3.6-0.3-5.9-3.4-5.5-7c0.5-3.7,3.3-5.8,6.9-5.3C69.6,13.8,71.8,16.9,71.2,20.2z M69.5,18.6
		c-0.3-2.3-2.2-3.8-4.5-3.6c-1.9,0.2-3.6,1.9-3.5,3.6C64.1,18.6,66.7,18.6,69.5,18.6z"/>
	<path d="M114.7,15.3c0-0.2,0.1-0.3,0.1-0.5c0.1-1.4,0.2-1.5,1.7-1.2c0,3.9,0,7.8,0,11.8c-0.6,0-1.1,0-1.7,0c0-0.5-0.1-1-0.1-1.7
		c-1.7,1.9-3.6,2.4-5.9,1.8c-2.4-0.7-3.7-2.4-4.1-4.8c-0.3-2.1,0.1-4.1,1.6-5.7c1.8-2,6.2-2.6,8.1,0.1
		C114.5,15.2,114.5,15.2,114.7,15.3z M114.9,19.2c-0.1-1.3-0.5-3-2.3-3.8c-1.9-0.9-4.1-0.3-5.3,1.2c-1.3,1.7-1.3,4.4,0.1,6
		c1.2,1.4,3.1,1.9,4.8,1.3C113.8,23.3,114.8,21.8,114.9,19.2z"/>
	<path d="M53.9,18.3c1.7,2.4,3.3,4.7,5,7.1c-1.2,0.4-2,0.2-2.7-0.8c-1.2-1.7-2.3-3.3-3.7-5.2c-0.7,0.8-1.4,1.5-2,2.3
		c-0.1,0.2-0.2,0.5-0.2,0.7c0,1,0,2.1,0,3.2c-0.6,0-1.1,0-1.7,0c0-5.6,0-11.2,0-16.8c0.6,0,1.1,0,1.7,0c0,3.6,0,7.1,0,10.6
		c0.1,0,0.1,0.1,0.2,0.1c0.4-0.4,0.8-0.8,1.2-1.2c1.2-1.2,2.4-2.4,3.6-3.7c0.6-0.7,1.3-1.1,2.3-0.9c0.3,0,0.5,0,0.9,0
		C56.9,15.2,55.4,16.7,53.9,18.3z"/>
	<path d="M125.8,15c-2.8,0.4-4.5,2.4-4.5,5.2c0,1.7,0,3.4,0,5.1c-0.6,0-1.1,0-1.6,0c0-3.9,0-7.8,0-11.8c0.5,0,1,0,1.6,0
		c0,0.8,0,1.6,0,2.5c0.1,0,0.1,0.1,0.2,0.1c0.9-1.8,2.3-2.8,4.4-2.8C125.8,14,125.8,14.5,125.8,15z"/>
	<g>
		<text transform="matrix(1 0 0 1 140.6152 16.7015)" class="st0 st1">R</text>
		<circle class="st2" cx="141.6" cy="15.6" r="1.8"/>
	</g>
	<polygon class="st3" points="10.6,12.8 10.6,10.3 23.9,2.7 37.2,10.3 37.2,12.8 	"/>
	<polygon class="st3" points="37.2,23.1 37.2,25.7 23.9,33.3 10.6,25.7 10.6,23.1 	"/>
	<rect x="10.6" y="14.8" class="st4" width="26.7" height="6.3"/>
</g>
</svg>
