<svg id="Layer_1" data-name="Layer 1" xmlns="http://www.w3.org/2000/svg" viewBox="0 0 999.99 600"><defs><style>.cls-1{fill:#3f3f39;}.cls-2{fill:#fff;}</style></defs><path class="cls-1" d="M897.89,247a1.13,1.13,0,0,0-.95-.54A8,8,0,0,0,897.89,247Z" transform="translate(-0.01 0)"/><path class="cls-1" d="M894.13,244.83a.73.73,0,0,0-.74-.24Z" transform="translate(-0.01 0)"/><path class="cls-1" d="M990.87,493.29h0s0,0,0,0h0l-.05-.06,0,.06h0Z" transform="translate(-0.01 0)"/><path class="cls-1" d="M781.14,445.28h0Z" transform="translate(-0.01 0)"/><path class="cls-1" d="M871.07,194c-.1.37-.21.74-.31,1.11A2.16,2.16,0,0,0,871.07,194Z" transform="translate(-0.01 0)"/><path class="cls-2" d="M999.23,241.47c-2.6.54-5.2,1.08-7.79,1.67-5.11,1.16-10.27,2.1-15.43,3s-10.45,1.85-15.73,2.44c-4.74.53-9.49,1-14.25,1.35-3.38.24-6.77.21-10.16.14a121.26,121.26,0,0,1-17.23-1.57A85.09,85.09,0,0,1,901.73,244c-8.07-3.11-15.28-7.44-21.09-13.92a32.25,32.25,0,0,1-7.87-18,41.81,41.81,0,0,1,1-14.23,59.85,59.85,0,0,1,7.25-18,124.22,124.22,0,0,1,9.62-13.69c2.89-3.63,5.69-7.35,8.65-10.93a178.17,178.17,0,0,0,14.9-20.41,32.24,32.24,0,0,0,4.24-9.82A14.8,14.8,0,0,0,914,110.25c-3.2-3-7.33-4.5-11.62-5.41a58.62,58.62,0,0,0-16.56-1,128,128,0,0,0-14.2,1.85c-4.83.9-9.61,2-14.33,3.33s-9.25,2.84-13.83,4.42c-5,1.71-9.84,3.63-14.67,5.63q-7.71,3.18-15.24,6.83c-5.43,2.64-11,5-16.47,7.52-8.1,3.68-16.17,7.45-24.46,10.71-6.27,2.48-12.57,4.9-19,6.87a116.35,116.35,0,0,1-17.78,4.31c-8.75,1.22-17.21.55-25.39-3a26.67,26.67,0,0,1-10.24-7.7c-3.77-4.61-5.38-10.16-6.07-16a59.3,59.3,0,0,1,1-17,99.67,99.67,0,0,1,5.93-20.2A177.07,177.07,0,0,1,709.19,74c2.89-5.45,5.88-10.86,8.46-16.48,2.84-6.23,5.42-12.54,6.75-19.31a50.4,50.4,0,0,0,.67-16.66A53.53,53.53,0,0,0,717.2,0h-2.8a9.17,9.17,0,0,0,.41.9,50.39,50.39,0,0,1,6.73,15.87,44.55,44.55,0,0,1,1.17,13.84,65.16,65.16,0,0,1-5.13,19.54c-3.14,7.62-7.11,14.84-11,22.1a160.1,160.1,0,0,0-12.49,29.39c-.12.48-.22,1-.33,1.45s-.24,1-.39,1.53a10.08,10.08,0,0,1-.5,1.43h0c-.16.94-.32,1.87-.47,2.81l-1,6.17-.51,3h0a81.51,81.51,0,0,0,.37,13.16v0c.28.92.48,1.86.69,2.79.14.65.3,1.29.47,1.92a15.28,15.28,0,0,0,.7,2.14c.08.2.17.39.25.59l1.92,4.51a7.7,7.7,0,0,1,1.59,2.42,3.13,3.13,0,0,1,1.24,1.6,1.87,1.87,0,0,1,.75.8,12.21,12.21,0,0,1,2,2l3.15,2.45h0c.57.37,1.29.52,1.69,1.13h0a43.54,43.54,0,0,0,10.38,4.14,1.57,1.57,0,0,1,.48.31l.22,0c.31,0,.62,0,.92.07,1.86.19,3.69.61,5.56.8a54.54,54.54,0,0,0,13.33-.33,119,119,0,0,0,19.11-4.71c7.66-2.44,15.18-5.28,22.65-8.24,4.55-1.81,9-3.88,13.49-5.85q5.73-2.52,11.41-5.14,6.57-3,13.15-6.09c5.46-2.52,11-5,16.59-7.18l4.61-1.72h0c4.3-1.61,8.61-3.18,13-4.64a163.93,163.93,0,0,1,23.08-6,103.93,103.93,0,0,1,15.62-1.79c5.8-.15,11.54.28,17.05,2.34a15.35,15.35,0,0,1,6.27,4.1A11.38,11.38,0,0,1,915.37,124a19.84,19.84,0,0,1-.92,3.19,10.41,10.41,0,0,1-.49,1.2A44.09,44.09,0,0,1,911,134c-4.19,6.89-9.23,13.16-14.22,19.46-4,5.1-8.16,10.13-12.09,15.32a84.1,84.1,0,0,0-10.26,17,65.21,65.21,0,0,0-3.09,8.55,3.37,3.37,0,0,1-.09.34,48.82,48.82,0,0,0-1.76,10.91c-.43,10.57,2.54,20,10,27.85a53.94,53.94,0,0,0,14.18,10.48A73.86,73.86,0,0,0,907,249.27h0c.11,0,.19.15.27.23l.2.05,5.31,1.19a1.83,1.83,0,0,1,.25.06c1.25.27,2.49.55,3.74.79,3.31.64,6.68.95,10,1.38a105.3,105.3,0,0,0,17.48.54c5.37-.2,10.72-.63,16.06-1.34,6.68-.9,13.33-1.92,20-3.16a49.09,49.09,0,0,1,6.26-1.1l.2,0h0v0a7.32,7.32,0,0,1,.93-.33c1.43-.45,2.94-.56,4.39-.93,2.63-.67,5.29-1.24,7.94-1.85v-3.2A2.18,2.18,0,0,0,999.23,241.47Z" transform="translate(-0.01 0)"/><path class="cls-2" d="M336,492a2.77,2.77,0,0,0-.1-.26c-.07-.19-.15-.37-.22-.56-.31-.76-.64-1.51-1-2.27a3.45,3.45,0,0,1-.53-.55c-.07-.09-.16-.18-.23-.28a6.09,6.09,0,0,1-.43-.75.48.48,0,0,1-.41-.4,9.43,9.43,0,0,1-.84-.56c-.37-.26-.75-.52-1.1-.8l-.8-.65h0c-.34-.17-.69-.31-1-.45a6,6,0,0,1-.63-.29,3.2,3.2,0,0,1-.74-.47l-2.54-.69a47.52,47.52,0,0,0-5.54-1.2c-1-.14-1.91-.24-2.86-.31l-.41,0-.5,0c-1.17-.06-2.35-.11-3.53-.13-.59,0-1.17,0-1.76,0h-.21c-1,0-2,.06-3,.1-2.13.1-4.24.31-6.34.56s-3.91.52-5.86.84l-2,.35-.52.09a9.39,9.39,0,0,1-1.19.06c-.59.54-1.35.18-2,.38h0c-1,.27-2,.53-3,.78-1.2.3-2.4.59-3.61.83-.85.17-1.7.32-2.56.45h0a3.84,3.84,0,0,1-.8.36,16.3,16.3,0,0,1-1.7.44,6.13,6.13,0,0,0-1.12.37h0a1.41,1.41,0,0,1-.43.27,2.36,2.36,0,0,1-.6.11,6.11,6.11,0,0,0-1,.06h0c-.44.21-.89.4-1.33.58a34.21,34.21,0,0,1-4.1,1.29l-2.16.55-.43.34a1.22,1.22,0,0,1-.32.2q-2.92,1-5.86,2l-1.81.63v0c-.31.12-.61.26-.91.4A8.79,8.79,0,0,1,256,494a3.51,3.51,0,0,1-.8.11h0c-.75.38-1.52.74-2.29,1.09-1.76.81-3.57,1.52-5.39,2.19l-3.12,1.13h0a8.6,8.6,0,0,1-1.23.75c-1,.48-2,.83-3,1.23l-.82.37c-.21.1-.42.19-.62.3a18,18,0,0,1-2,.91c-.67.26-1.33.51-2,.78h0l-1,.52a10,10,0,0,1-1.27.52,6.34,6.34,0,0,1-.86.21,7.22,7.22,0,0,1-.89.59,16.71,16.71,0,0,1-2.94,1.29c-.46.17-.92.34-1.37.53a3.75,3.75,0,0,1-.44.37,4.21,4.21,0,0,1-1.83.78l-.53.08a6.31,6.31,0,0,1-.86.6,17.36,17.36,0,0,1-2.91,1.33l-1,.4a4.61,4.61,0,0,1-1.61.81,3,3,0,0,1-.39.33,4.73,4.73,0,0,1-1.68.72l-.71.17c-.34.23-.68.43-1,.64a23.37,23.37,0,0,1-3.83,1.78l-1.13.41a.88.88,0,0,1-.82.39h0c-.41.27-.83.51-1.25.75a30.2,30.2,0,0,1-3.91,1.83c-.54.22-1.09.43-1.64.63h0c-.4.24-.81.47-1.22.7a31.52,31.52,0,0,1-3.58,1.68c-.39.15-.78.3-1.18.43h0l0,0a10.57,10.57,0,0,1-1,.64,24.69,24.69,0,0,1-3.47,1.59c-.4.16-.79.32-1.18.5-.3.39-.77.36-1.2.46h0c-.43.27-.87.52-1.31.77a17.41,17.41,0,0,1-2.76,1.22,11.11,11.11,0,0,1-1.16.35,3.15,3.15,0,0,1-.56.42,6.6,6.6,0,0,1-1.56.62l-.65.19a6.9,6.9,0,0,1-.67.43,3.36,3.36,0,0,1-.79.32,3.22,3.22,0,0,1-.54.1h0l-1.65.83a26.47,26.47,0,0,1-3.73,1.56,11.6,11.6,0,0,1-1.4.38c-.07.11-.13.25-.23.29l-2.5,1c-2.67,1.07-5.36,2.11-8.08,3-.87.3-1.73.6-2.61.87a2.81,2.81,0,0,1-.59.06v0a11.39,11.39,0,0,1-2.14,1,20.07,20.07,0,0,1-2.3.64c-.66.15-1.32.28-2,.41h0a10,10,0,0,1-1.11.51,17.11,17.11,0,0,1-2.8.78l-1.7.31,0,0c-.94.26-1.88.48-2.83.68a39.3,39.3,0,0,1-4.92.77,28.11,28.11,0,0,1-10.74-1l-.58-.16a7.3,7.3,0,0,1-2.15-1,3.85,3.85,0,0,1-.56-.51,8.46,8.46,0,0,1-1.11-.91,3.46,3.46,0,0,1-1.19-2.28,5.89,5.89,0,0,1,.32-2.18l0,0c0-.23.08-.47.13-.7a4.65,4.65,0,0,1,.68-1.68,3,3,0,0,1,.37-.44c.1-.27.2-.55.31-.81a6.31,6.31,0,0,1,.87-1.51,4.94,4.94,0,0,1,.45-.47,1.89,1.89,0,0,1,.13-.48,2.9,2.9,0,0,1,.73-1.18,3,3,0,0,1,.37-.34.42.42,0,0,1,.34-.44c.07-.16.13-.31.21-.46a1.66,1.66,0,0,1,.4-.55l.22-.16c.13-.2.27-.39.4-.58a13.2,13.2,0,0,1,1.69-2,7.93,7.93,0,0,1,.71-.59.53.53,0,0,1,.38-.45,9.94,9.94,0,0,1,.71-1.11,20.66,20.66,0,0,1,2.72-3l1-1h0c.25-.3.39-.69.79-.84.38-.44.81-.85,1.21-1.28,2.27-2.45,4.67-4.77,7-7.14a3.19,3.19,0,0,1,.66-.48c.21-.12.43-.24.63-.37a7.23,7.23,0,0,1,.78-1,32.1,32.1,0,0,1,2.82-2.52,9.37,9.37,0,0,0,.87-.8,3.48,3.48,0,0,1,.48-.53,4.53,4.53,0,0,1,.78-.67,6,6,0,0,1,.68-.43.51.51,0,0,1,.45-.38c.32-.36.66-.68,1-1a25.79,25.79,0,0,1,2-1.9c.45-.38.88-.78,1.36-1.12a3.84,3.84,0,0,1,.41-.56,4.62,4.62,0,0,1,.64-.61,5,5,0,0,1,.58-.4l.68-.71a32.3,32.3,0,0,1,3.1-3,11.44,11.44,0,0,1,1-.72,3.39,3.39,0,0,1,.29-.53,3.82,3.82,0,0,1,1.21-1.19,5.54,5.54,0,0,1,.53-.3c.08-.13.17-.26.26-.38a6,6,0,0,1,1.38-1.29l.39-.27a3.13,3.13,0,0,1,.3-.54,5.45,5.45,0,0,1,1.59-1.51l.51-.35a.41.41,0,0,1,.4-.4,1.66,1.66,0,0,1,.81-.8c.16-.22.36-.4.53-.6a21.73,21.73,0,0,1,2.36-2.34c.24-.21.47-.43.72-.63h0a1.6,1.6,0,0,1,.82-.82c.19-.25.41-.46.61-.7a24.06,24.06,0,0,1,2.8-2.82c.19-.16.36-.34.55-.5a.41.41,0,0,1,.4-.4.55.55,0,0,1,.41-.42,7.58,7.58,0,0,1,.6-.88,15,15,0,0,1,1.55-1.64l1.08-1h0a3.58,3.58,0,0,0,.31-.45,1.73,1.73,0,0,1,.61-.65.77.77,0,0,1,.26-.12,5.82,5.82,0,0,1,.47-.71,5.73,5.73,0,0,1,.86-1,7,7,0,0,1,.69-.64h0a2,2,0,0,1,.77-.82,1,1,0,0,1,.09-.36,3.69,3.69,0,0,1,.6-.78l6.72-8.29c.47-.58.94-1.17,1.42-1.75h0c.18-.3.39-.56.58-.85a26.91,26.91,0,0,1,1.72-2.26c.15-.18.28-.36.43-.53a1.42,1.42,0,0,1,.11-.31,3.58,3.58,0,0,1,.72-1.12,3.48,3.48,0,0,0,.43-.58c.6-1,1.21-2,1.8-3l.42-.73c.21-.34.41-.69.61-1,.36-.66.7-1.32,1-2l.37-.75c.21-.45.41-.91.6-1.37.12-.28.25-.54.36-.81s.15-.5.24-.75c.15-.4.28-.81.4-1.21.22-.69.43-1.38.6-2.08,0,0,0-.08,0-.12a29.5,29.5,0,0,0,.72-9.25h0c-.22-.68-.42-1.37-.61-2.06a38.78,38.78,0,0,0-1.38-4.45l-.11-.27a32,32,0,0,0-3.07-5.37c-.41-.61-.83-1.21-1.25-1.81-.41-.45-.86-.85-1.28-1.28a58.33,58.33,0,0,0-13.78-10.43,2,2,0,0,0-1.08-.43,4.7,4.7,0,0,0-.8-.61,8.6,8.6,0,0,0-.84-.47,12.07,12.07,0,0,1-2.13-1.21h0l-1.1-.44c-.86-.34-1.71-.71-2.54-1.12-.52-.26-1.05-.5-1.55-.79l0,0a1,1,0,0,1-.81-.38h0a1.66,1.66,0,0,1-.45,0,2.37,2.37,0,0,1-.85-.36c-.23-.15-.45-.3-.68-.43h0a4.71,4.71,0,0,1-.85-.14,7.78,7.78,0,0,1-1.22-.45c-.49-.21-1-.44-1.49-.61l0,0c-1.07-.39-2.29-.4-3.23-1.15h0a9.94,9.94,0,0,1-2.7-.58c-4.57-1.35-9.22-2.35-13.9-3.24a68.22,68.22,0,0,1-7.36-1.41h0a25.61,25.61,0,0,1-2.77-.2c-4.48-.73-9-1-13.51-1.34a199,199,0,0,0-26.53-.17,280.12,280.12,0,0,0-28.16,3.19,56.33,56.33,0,0,0-6,1.13c-.45.12-.91.25-1.35.41a7.3,7.3,0,0,0-.94.08c-1.6.16-3.14.65-4.71,1-3.32.64-6.51,1.79-9.86,2.32h0a3.62,3.62,0,0,1-1.65.63l-1.53.44c-1.49.43-3,.87-4.45,1.32s-3.22,1-4.81,1.6c-1,.35-1.9.7-2.83,1.09l-.56.13-1.75.41h0a1,1,0,0,1-.83.37h0l-2.49,1-4.38,1.77-3.05,1.23h0l-.45.31-.46.31h0a.84.84,0,0,0-.83.42h0a5.76,5.76,0,0,0-2,.73,2.72,2.72,0,0,1-.69.19h0a6.89,6.89,0,0,1-1,.6,4,4,0,0,1-.67.3,5.68,5.68,0,0,1-1.08.35,5.15,5.15,0,0,1-.52.43,6,6,0,0,1-1.48.67l-.39.13a.76.76,0,0,1-.21.19.78.78,0,0,1-.29.14,1.54,1.54,0,0,1-.31.05,1,1,0,0,1-.24.22,1.15,1.15,0,0,1-.23.1,1.7,1.7,0,0,1-.34.07.69.69,0,0,1-.24.24.75.75,0,0,1-.2.1,1.52,1.52,0,0,1-.32.06.53.53,0,0,1,0,.12.7.7,0,0,1-.06.19l-1.3.52-.64.25-.34.14h0c0,.1-.14.14-.21.2a.82.82,0,0,1-.26.14,1.14,1.14,0,0,1-.33.06l0,0-.18.21-.06.06-.28.32a.91.91,0,0,0-.44.07l0,0a.75.75,0,0,0-.3.33h0l-.31,0H2l-.39.05h0a2.33,2.33,0,0,1-.36.28,3.07,3.07,0,0,1-.35.28h0a2,2,0,0,1-.91.18v2a1.71,1.71,0,0,0,1.66-.7.87.87,0,0,0,.78-.44.86.86,0,0,0,.78-.43,29.39,29.39,0,0,0,5.6-2.82c1.39-.62,2.81-1.19,4.17-1.87,2.61-1.3,5.4-2.22,7.94-3.67,2.89-.77,5.59-2.07,8.38-3.11a225,225,0,0,1,32.2-9.14,257.53,257.53,0,0,1,27.82-4.07,223.36,223.36,0,0,1,28.1-.87c4.59.14,9.16.59,13.74.79a2.63,2.63,0,0,0,1.35.25,181.57,181.57,0,0,1,22.22,3.68A110.16,110.16,0,0,1,175,397c8.74,3.89,16.92,8.66,23.35,16,.76,1.24,1.6,2.44,2.28,3.73,3,5.5,4,11.25,2.15,17.35a46.46,46.46,0,0,1-7,13.57A188.56,188.56,0,0,1,184,462.47c-3.38,3.93-6.88,7.72-10.56,11.37-5.95,5.9-11.93,11.77-18.11,17.43-3.23,3-6.49,5.86-9.71,8.83-2.82,2.61-5.64,5.21-8.37,7.92-2.91,2.9-5.74,5.88-8.54,8.89a54.39,54.39,0,0,0-9.69,13.56c-2.35,4.94-1.23,9.6,3.55,12.28a25,25,0,0,0,10.89,2.75,43,43,0,0,0,12.06-1.35A145.24,145.24,0,0,0,164,538.43c3.62-1.32,7.18-2.79,10.75-4.23,5.42-2.18,10.75-4.55,16.07-7s10.61-4.92,15.86-7.5c4.71-2.31,9.52-4.39,14.27-6.62,3.9-1.84,7.85-3.58,11.74-5.44,4.43-2.11,9-4,13.51-5.89,7.66-3.17,15.39-6.19,23.25-8.88A174.26,174.26,0,0,1,295.81,486a88.28,88.28,0,0,1,20.83-1.58,31.2,31.2,0,0,1,11.26,2.39,9.59,9.59,0,0,1,5.62,6.06,12.59,12.59,0,0,1-.09,6.7,65.9,65.9,0,0,1-6.16,14.88c-5.62,10.64-12.1,20.77-18,31.23-5.14,9.09-10.19,18.21-13.83,28-3.14,8.48-5.31,17.13-5,26.26h2.8c0-.26,0-.52,0-.78,0-1.68.06-3.36.2-5,.08-.92.19-1.84.32-2.76.07-.55.14-1.09.23-1.63.06-.37,0-.77.33-1a56.18,56.18,0,0,1,1.17-5.94c.27-1.09.57-2.16.91-3.23a48.43,48.43,0,0,1,2-5.22h0a1.49,1.49,0,0,1,.4-1.24c.11-.41.26-.81.4-1.22a13.68,13.68,0,0,1,.56-1.43,12.36,12.36,0,0,1,.64-1.32h0a1,1,0,0,1,.06-.4.65.65,0,0,1,.08-.17.81.81,0,0,1,.24-.25,1.07,1.07,0,0,1,.05-.32.71.71,0,0,1,.11-.25.61.61,0,0,1,.24-.24c.06-.24.13-.47.21-.71a12.26,12.26,0,0,1,1.37-3c.14-.22.27-.44.43-.65a2.1,2.1,0,0,1,.11-.51,4.57,4.57,0,0,1,.7-1.35c.12-.18.26-.36.39-.54h0c0-.17.05-.33.08-.48a2,2,0,0,1,.44-.9,1.35,1.35,0,0,1,.28-.25,2.12,2.12,0,0,1,.13-.51,4.14,4.14,0,0,1,.58-1.1c.18-.26.35-.51.5-.77h0c.12-.26.23-.53.35-.79a7.11,7.11,0,0,1,.86-1.58,4,4,0,0,1,.37-.45,3.4,3.4,0,0,1,.12-.38,2.68,2.68,0,0,1,.43-.84,2.48,2.48,0,0,1,.29-.37c.17-.39.37-.77.55-1.15.33-.66.69-1.31,1.07-1.93.27-.43.52-.87.81-1.28a4.71,4.71,0,0,1,.36-.75c.11-.21.22-.41.35-.61s.3-.45.46-.67h0c.27-.56.58-1.09.87-1.63.44-.83.9-1.64,1.4-2.44.31-.51.62-1,.94-1.53a2.23,2.23,0,0,1,.13-.39,3.88,3.88,0,0,1,.71-1.19l.39-.42c.52-1,1.09-2,1.64-3,.75-1.34,1.56-2.67,2.4-4,.5-.77,1-1.55,1.49-2.29h0a1.59,1.59,0,0,1,.07-.38.71.71,0,0,1,.16-.31.77.77,0,0,1,.2-.13l.65-1.18c.68-1.26,1.36-2.53,2.16-3.72.25-.36.5-.73.78-1.08h0a4.18,4.18,0,0,1,.19-.6,5.67,5.67,0,0,1,.93-1.59l.51-.61c.06-.25.12-.5.2-.74a1.91,1.91,0,0,1,.28-.55,1.43,1.43,0,0,1,.34-.3c.07-.24.15-.47.24-.7A9.58,9.58,0,0,1,330.2,515c.15-.22.31-.43.48-.64a1.68,1.68,0,0,1,.49-1.18c.15-.42.34-.83.52-1.25s.51-1.1.8-1.63c.2-.38.39-.76.63-1.13h0c.18-.57.38-1.12.59-1.67.67-1.81,1.44-3.58,2-5.45a1.42,1.42,0,0,1,0-.16c0-.07,0-.14.05-.22a17.67,17.67,0,0,0,.5-8.71C336.18,492.62,336.09,492.29,336,492Z" transform="translate(-0.01 0)"/><polygon class="cls-1" points="315.95 99.14 315.94 99.14 315.95 99.14 315.95 99.14 315.95 99.14"/><path class="cls-2" d="M367.74,5.31a232.21,232.21,0,0,0-16,18.51,203.09,203.09,0,0,0-12.2,17.72c-2.84,4.56-5.42,9.27-7.95,14-3.53,6.63-6.71,13.41-9.68,20.3-2.54,5.91-5.14,11.81-7.52,17.79-3.52,8.88-6.89,17.82-10,26.84-1.6,4.58-3.22,9.14-5,13.66-2.41,6.25-4.7,12.54-7.33,18.7-1.67,3.9-3.12,7.9-4.83,11.78-1.94,4.43-4.05,8.79-6.1,13.17a144.19,144.19,0,0,1-7.8,14.55,131.55,131.55,0,0,1-11.88,16.44c-5.91,6.94-12.36,13.32-20.16,18.19a51.56,51.56,0,0,1-21.15,7.79,50.85,50.85,0,0,1-22.82-2.44,49.51,49.51,0,0,1-16.74-9.39c-5.65-4.89-9.81-11-13.36-17.46-4-7.4-7.16-15.24-10.38-23-1.88-4.54-3.81-9.05-6-13.46A114.82,114.82,0,0,0,135,144.25a87.17,87.17,0,0,0-14.62-13.73,42.75,42.75,0,0,0-9.08-5.37,49.23,49.23,0,0,0-10.21-4.37,82.29,82.29,0,0,0-19.08-4,64.66,64.66,0,0,0-11.13-.41c-.34-.32-.76-.16-1.14-.16a162.31,162.31,0,0,0-22.22,2.07A156.32,156.32,0,0,0,26.35,123,149.1,149.1,0,0,0,1.47,133.19c-.45.23-.86.68-1.46.41V136a8.46,8.46,0,0,1,1-.4,2.18,2.18,0,0,1,.52-.11h0a14.71,14.71,0,0,1,1.23-.83c1.55-.93,3.25-1.56,4.88-2.34l.71-.32,1.93-.86a137.84,137.84,0,0,1,17.89-6.56c1.4-.41,2.8-.83,4.21-1.2a13.92,13.92,0,0,1,1.57-.27l0,0c1.45-.45,2.92-.81,4.4-1.12,1.81-.4,3.64-.73,5.47-1l2-.33c1.45-.24,2.9-.46,4.36-.66l.21,0q5.67-.78,11.38-1.19c.57,0,1.13-.1,1.69-.13.93-.06,1.85-.09,2.77-.12,3.93-.13,7.84,0,11.76.17l1.93.11,1.23.07h.06l1,.14c1.6.23,3.19.47,4.78.75a88.13,88.13,0,0,1,12.85,3.12h.1l.22,0h.27a1.17,1.17,0,0,0,.24.21c.44.34,1.08.35,1.45.79.47.1.92.23,1.37.37a20.65,20.65,0,0,1,3.45,1.41c.41.2.81.4,1.2.62v0c.21.1.42.19.64.27a14.08,14.08,0,0,1,2.1,1c.15.1.32.2.47.32,0,0,0,0,0,0,.2.11.4.2.61.29a5.31,5.31,0,0,1,1.06.61,1.92,1.92,0,0,1,.34.3c.26.11.51.24.77.36a17.94,17.94,0,0,1,2.89,1.85l.74.59h0c.28.15.53.34.79.51a13.47,13.47,0,0,1,2.11,1.65,8.69,8.69,0,0,1,.7.66,3.64,3.64,0,0,1,.58.33,4.53,4.53,0,0,1,1,.83,4.57,4.57,0,0,1,.43.45c.45.36.89.74,1.34,1.12a44.53,44.53,0,0,1,5.46,5.44c.39.47.79.93,1.16,1.42a.54.54,0,0,1,.43.44,2,2,0,0,1,.28.2,3.82,3.82,0,0,1,1.06,1.3c.09.15.17.31.26.47a.47.47,0,0,1,.39.42.45.45,0,0,1,.36.44,3,3,0,0,1,.39.29,3.65,3.65,0,0,1,.92,1.15,5.26,5.26,0,0,1,.26.59c.26.25.49.53.73.8a10.33,10.33,0,0,1,.78,1.06,7.2,7.2,0,0,1,.53.89,1.89,1.89,0,0,1,.82,1.22,4.7,4.7,0,0,1,.71.77,6,6,0,0,1,.39.59,8.68,8.68,0,0,1,.51,1,2.22,2.22,0,0,1,.31.3,3.85,3.85,0,0,1,.8,1.33l.12.34a.48.48,0,0,1,.36.45,3,3,0,0,1,.32.3,2,2,0,0,1,.47.94,1.75,1.75,0,0,1,.06.33,2.73,2.73,0,0,1,.25.23,1.6,1.6,0,0,1,.46.74,1.84,1.84,0,0,1,0,.25.73.73,0,0,1,.21.22.84.84,0,0,1,.17.34,2,2,0,0,1,.06.23.35.35,0,0,1,.1.11.85.85,0,0,1,.27.51s0,.1,0,.15a.38.38,0,0,1,.15.09l.07.08.06.08a.4.4,0,0,1,.07.19,1.2,1.2,0,0,1,.23.22,2.07,2.07,0,0,1,.15.25c.09.16.17.33.25.49s.12.43.17.65a3.32,3.32,0,0,1,.26.28,2.15,2.15,0,0,1,.5,1,1.65,1.65,0,0,1,0,.32l.56.82a7,7,0,0,1,.87,1.72,4.41,4.41,0,0,1,.16.65.94.94,0,0,1,.43.81h0l.6,1.08a33.12,33.12,0,0,1,1.69,3.5c.19.47.36.94.51,1.42h0a0,0,0,0,0,0,0c.39.7.74,1.41,1.07,2.13.91,2,1.67,4,2.48,6,.64,1.59,1.42,3.12,2,4.73.17.51.33,1,.45,1.55h0c.29.56.54,1.14.82,1.71.53,1.12,1,2.25,1.48,3.39.32.82.66,1.64.95,2.47h0c.24.43.45.87.68,1.31.59,1.1,1.14,2.23,1.65,3.38.3.69.62,1.38.89,2.09h0v0l0,0c.43.62.8,1.27,1.19,1.92.5.82,1,1.66,1.42,2.52.34.66.69,1.31,1,2a3.34,3.34,0,0,1,.47.45,2.42,2.42,0,0,1,.42.62,2.46,2.46,0,0,1,.25.57,1,1,0,0,1,.43.79.92.92,0,0,1,.25.17,1.64,1.64,0,0,1,.46.67,3.37,3.37,0,0,1,.1.34.44.44,0,0,1,.35.44l.44.42a4.49,4.49,0,0,1,1.07,1.55,2.7,2.7,0,0,1,.14.4l.42.37a4.08,4.08,0,0,1,1,1.2,2.17,2.17,0,0,1,.19.44c.35.3.66.64,1,1,.95.92,1.87,1.85,2.78,2.81.32.35.64.7,1,1h0l1.06.86c.49.38,1,.76,1.43,1.18a8.85,8.85,0,0,1,.74.76l1.19.77,3.79,2.44,1.79,1.16a.78.78,0,0,1,.82.4A28.25,28.25,0,0,1,192,233.7l.63.28c.79.36,1.59.71,2.4,1a55,55,0,0,0,24.26,3.11c.94-.09,1.9-.2,2.85-.34a16.62,16.62,0,0,0,1.86-.4,5.17,5.17,0,0,1,1.56-.23h0c.6-.45,1.33-.3,2-.42h0a7.46,7.46,0,0,1,1.14-.55c1.29-.52,2.66-.81,4-1.32l.06,0,.07,0a66.36,66.36,0,0,0,9-4.39,1.63,1.63,0,0,0,.19-.09c.5-.28,1-.52,1.54-.78a.47.47,0,0,1,.45-.36.67.67,0,0,1,.27-.32l.1-.06a1.18,1.18,0,0,1,.39-.1,8.67,8.67,0,0,1,.72-.64h0a4.17,4.17,0,0,1,.85-.53,3.09,3.09,0,0,1,1.19-.8l.32-.36a3,3,0,0,1,1-.74,2.85,2.85,0,0,1,.31-.12c.14-.15.29-.29.44-.43a5.4,5.4,0,0,1,.87-.71,3.4,3.4,0,0,1,.69-.41.49.49,0,0,1,.43-.41A6.27,6.27,0,0,1,252,223a14.23,14.23,0,0,1,2.22-1.95l.51-.38a.69.69,0,0,1,.07-.15,1.82,1.82,0,0,1,.71-.72,2.46,2.46,0,0,0,.44-.34h0c.13-.19.29-.35.44-.53a7.5,7.5,0,0,1,1.11-1.07c.16-.12.3-.26.47-.37l.41-.49a21.78,21.78,0,0,1,2.28-2.51,6.75,6.75,0,0,1,.85-.64,1.63,1.63,0,0,1,.18-.45,2.72,2.72,0,0,1,.6-.75l.46-.39a12,12,0,0,1,.81-1.07c.23-.27.46-.54.7-.8s.58-.6.89-.89h0a.52.52,0,0,1,.39-.46,12.31,12.31,0,0,1,.67-1A10.07,10.07,0,0,1,267,207a9.49,9.49,0,0,1,.93-1c.13-.22.26-.44.4-.66a6.64,6.64,0,0,1,1.21-1.53c.11-.09.21-.19.33-.28a4.3,4.3,0,0,1,.24-.48,5.76,5.76,0,0,1,.6-.94c.14-.17.27-.36.43-.52a2.65,2.65,0,0,1,.24-.4,4,4,0,0,1,.54-.76c.14-.15.27-.3.41-.44a4.88,4.88,0,0,1,.27-.61,2.77,2.77,0,0,1,.46-.62,2.22,2.22,0,0,1,.41-.4c.09-.2.17-.41.27-.61a1.62,1.62,0,0,1,.27-.41,1.55,1.55,0,0,1,.24-.19,2.9,2.9,0,0,1,.16-.41,1.51,1.51,0,0,1,.32-.47,1.14,1.14,0,0,1,.35-.3,2.58,2.58,0,0,1,.11-.42,3.41,3.41,0,0,1,.66-1.08l.45-.49a1.17,1.17,0,0,1,.07-.46v0a.76.76,0,0,1,.3-.35l.32-.61a12.23,12.23,0,0,1,1.13-1.87c.18-.23.38-.46.59-.68a9.36,9.36,0,0,1,.39-1.09,14.27,14.27,0,0,1,1.3-2.36c.21-.32.44-.64.66-1h0a1.07,1.07,0,0,1,.41-.81,1.77,1.77,0,0,1,0-.33,1.57,1.57,0,0,1,.47-1,2.42,2.42,0,0,1,.34-.28c.11-.29.2-.59.3-.89a4.28,4.28,0,0,1,.48-1.07,2,2,0,0,1,.39-.44,3.2,3.2,0,0,1,.06-.46,1.73,1.73,0,0,1,.43-.84,1.6,1.6,0,0,1,.35-.28.92.92,0,0,1,.34-.85c.1-.33.22-.66.35-1a19.18,19.18,0,0,1,1.23-2.69c.27-.5.55-1,.86-1.49.11-.38.23-.76.36-1.13a10,10,0,0,1,.77-1.74,6.44,6.44,0,0,1,.47-.73h0a3.47,3.47,0,0,1,.23-.91l.09-.21c.14-.32.31-.63.47-.93l0,0a12.6,12.6,0,0,0,.54-1.32,12.93,12.93,0,0,1,1.05-2.41,5.54,5.54,0,0,1,.42-.65h0a4.34,4.34,0,0,1,.09-.54,3,3,0,0,1,.73-1.48c.1-.36.25-.7.37-1a23,23,0,0,1,1.11-2.66c.18-.36.34-.72.53-1.07h0c.11-.45.24-.9.38-1.34a14.16,14.16,0,0,1,1.06-2.55q.25-.48.54-.93h0a5.57,5.57,0,0,1,.14-.71,7.81,7.81,0,0,1,.63-1.69c.14-.27.28-.54.43-.81h0a4.84,4.84,0,0,1,.14-.51,4.55,4.55,0,0,1,.35-.93,3.81,3.81,0,0,1,.31-.56h0a1.07,1.07,0,0,1,.42-.81,4.92,4.92,0,0,1,.1-.67,17.22,17.22,0,0,1,1.17-3l.18-.46c.72-1.94,1.39-3.89,2.14-5.82.38-1,.78-1.94,1.23-2.89l0,0c.16-.54.32-1.07.49-1.6a23.62,23.62,0,0,1,1-2.54,10.88,10.88,0,0,1,.54-1.08h0a5.07,5.07,0,0,1,0-.56,1.3,1.3,0,0,1,.15-.43.9.9,0,0,1,.21-.23l.21-.84a13.14,13.14,0,0,1,.56-1.71,8.21,8.21,0,0,1,.51-1l0,0c.15-.58.31-1.16.48-1.73a24.38,24.38,0,0,1,1.23-3.35,13.81,13.81,0,0,1,.69-1.32,2.19,2.19,0,0,1,0-.57,1.12,1.12,0,0,1,.18-.47,1.06,1.06,0,0,1,.17-.2c0-.1,0-.2,0-.3a1.17,1.17,0,0,1,.25-.75l.15-.15a1.08,1.08,0,0,1,.42-.79,3,3,0,0,1,0-.6,12.13,12.13,0,0,1,1-2.92c.69-2,1.38-4,2.21-6,.24-.56.49-1.12.76-1.67h0c0-.23.08-.45.14-.68a5.94,5.94,0,0,1,.63-1.55,5.56,5.56,0,0,1,.41-.58c.15-.53.3-1.06.47-1.59a24.49,24.49,0,0,1,1.24-3.17c.21-.43.42-.86.66-1.28l0,0c.12-.41.05-.89.43-1.21a9.28,9.28,0,0,1,.36-1.09c.08-.2.16-.39.25-.58a7.09,7.09,0,0,1,.63-1.1,5.83,5.83,0,0,1,.21-.92,10.4,10.4,0,0,1,.78-1.93c.19-.38.4-.76.61-1.14a.83.83,0,0,1,.37-.83c.13-.37.24-.74.34-1.12a7.42,7.42,0,0,1,.79-1.88,3.24,3.24,0,0,1,.45-.6c.09-.38.21-.74.32-1.11a18.73,18.73,0,0,1,1.49-3.44c.19-.35.4-.7.61-1s.15-.58.24-.86a9.13,9.13,0,0,1,.93-2.09,7.23,7.23,0,0,1,.44-.64,2.12,2.12,0,0,1,.16-.67,1.77,1.77,0,0,1,.23-.48,2.69,2.69,0,0,1,.37-.48,5.58,5.58,0,0,1,.09-.59.65.65,0,0,1,0-.13.84.84,0,0,1,.35-.45c.13-.38.3-.75.46-1.13a10,10,0,0,1,.48-1,8.81,8.81,0,0,1,.65-1.1c.14-.42.34-.81.5-1.22a25.26,25.26,0,0,1,1.35-2.83c.29-.52.56-1.06.9-1.56h0c.07-.16.12-.34.18-.51a2.32,2.32,0,0,1,.41-.87,1.15,1.15,0,0,1,.22-.22l.62-1.31a30.82,30.82,0,0,1,2.27-4.09c.22-.34.45-.67.7-1,0-.18,0-.37.07-.56s.08-.17.11-.27.06-.12.08-.19a.85.85,0,0,1,.2-.17.46.46,0,0,1,.39-.42.5.5,0,0,1,.34-.43,2.84,2.84,0,0,1,.06-.31.68.68,0,0,1,.14-.25.6.6,0,0,1,.22-.23c.14-.28.28-.56.43-.84A27.79,27.79,0,0,1,341.44,45a13,13,0,0,1,.86-1.1c.12-.34.26-.67.41-1a11.91,11.91,0,0,1,1.62-2.58,9.92,9.92,0,0,1,.75-.85h0c.12-.32.28-.61.43-.92a40.68,40.68,0,0,1,2.91-4.35,20.52,20.52,0,0,1,1.89-2.74c.13-.13.24-.27.39-.4a.47.47,0,0,1,.4-.4,1.26,1.26,0,0,1,.44-.77,1,1,0,0,1,.09-.31,2.14,2.14,0,0,1,.62-.83c.16-.15.32-.3.46-.46a1,1,0,0,1,.26-.49l.07-.07a1.32,1.32,0,0,1,.46-.28,3.57,3.57,0,0,1,.33-.68,7.52,7.52,0,0,1,1-1.3l.72-.79a3,3,0,0,1,.82-1.2.43.43,0,0,1,.12-.28v0a.59.59,0,0,1,.29-.09l.48-.68a8.74,8.74,0,0,1,1.4-1.69,5.4,5.4,0,0,1,.52-.43,8,8,0,0,0,.72-1.1,4.87,4.87,0,0,1,1.08-1.35,2.31,2.31,0,0,1,.55-.37c.08-.2.15-.39.24-.57l.31-.38,0-.06a.77.77,0,0,1,.27-.14c.09-.16.18-.31.28-.46l.07-.08a1,1,0,0,1,.42-.29c.18-.27.38-.51.57-.77a11.89,11.89,0,0,1,1.4-1.6,9.45,9.45,0,0,1,.86-.81h0c.23-.35.5-.67.77-1,1.41-1.8,3.12-3.31,4.7-5a17.71,17.71,0,0,1,2.15-2.18c.13-.09.23-.18.36-.26h0a1.82,1.82,0,0,1,.78-.82.52.52,0,0,1,.43-.42,1.42,1.42,0,0,1,.2-.28C376,1.52,377,1,377.6,0h-4.8A70.52,70.52,0,0,1,367.74,5.31Z" transform="translate(-0.01 0)"/><path class="cls-1" d="M694.12,464.37a.47.47,0,0,1,.35-.27A.44.44,0,0,0,694.12,464.37Z" transform="translate(-0.01 0)"/><path class="cls-1" d="M688.6,469.41a.55.55,0,0,0-.11.28h0A.5.5,0,0,1,688.6,469.41Z" transform="translate(-0.01 0)"/><path class="cls-2" d="M991.24,493l-.2.19-.15.15a80.45,80.45,0,0,1-8.74,9.06,22.22,22.22,0,0,1-3.86,3.18l-.23.14c-.36.4-.75.75-1.14,1.11a57.66,57.66,0,0,1-7.12,5.33,65.86,65.86,0,0,1-21.51,9.67,63.67,63.67,0,0,1-15.44,1.75,132.75,132.75,0,0,1-17.14-1.13,7.62,7.62,0,0,1-1.65-.22c-.28,0-.57-.06-.85-.11-2.54-.38-5-.89-7.52-1.46l-.16,0A103.36,103.36,0,0,1,888.38,515c-4.65-2-9.28-4-13.7-6.42-6.4-3.49-12.77-7.05-19-10.88-6.56-4.05-12.57-8.86-18.72-13.49-3.82-2.88-7.68-5.71-11.41-8.71-3.17-2.55-6.18-5.29-9.25-7.95l-.36-.31h0l-.23-.18c-2.48-1.95-4.92-3.94-7.45-5.81a147.58,147.58,0,0,0-17.07-11.37,70.93,70.93,0,0,0-9.64-4.29,2.13,2.13,0,0,1-.45-.31h0a101.66,101.66,0,0,0-15.77-4.25,71.06,71.06,0,0,0-16-.52l-.91,0h0a81.92,81.92,0,0,0-18.89,3.86,89.41,89.41,0,0,0-9.64,3.75,1.78,1.78,0,0,1-.95.25,41.61,41.61,0,0,1-6.13,3.22,9.24,9.24,0,0,1-2.77,1.6.45.45,0,0,1-.47.34.76.76,0,0,1-.79.4c-1.7,1.12-3.2,2.55-5.18,3.23a5.37,5.37,0,0,1-2.38,1.62,4,4,0,0,1-1.6,1.22,18,18,0,0,1-3.58,2.79,4,4,0,0,1-1.57,1.23.48.48,0,0,1-.45.38,25.06,25.06,0,0,1-4,3.6c-.4.4-.56,1.05-1.21,1.2a.53.53,0,0,1-.39.42,1.83,1.83,0,0,1-1.2,1.19.5.5,0,0,1-.42.39,47.36,47.36,0,0,1-4.14,4.8l-1.1,1.15a.77.77,0,0,1-.12.26,2.4,2.4,0,0,1-.74.78l-.29.23-.63.9a20.25,20.25,0,0,1-1.94,2.39c-.22.23-.43.45-.67.67s-.31.41-.47.62c-.58.79-1.19,1.57-1.82,2.32-.29.35-.57.71-.89,1s-.38.59-.58.89a17.2,17.2,0,0,1-1.31,1.74c-.17.2-.32.4-.49.59a2,2,0,0,1-.84,1.19,1.79,1.79,0,0,1-.8,1.18.47.47,0,0,1-.35.47,2.22,2.22,0,0,1-.3.64h0a2.76,2.76,0,0,1-.49.54l-.32.58A14.71,14.71,0,0,1,667.5,496a7.47,7.47,0,0,1-.63.85c-.18.39-.4.76-.61,1.14a30.54,30.54,0,0,1-1.55,2.65c-.22.33-.42.68-.65,1h0a.51.51,0,0,1-.35.46,1,1,0,0,1-.42.78l-.39.8a42.63,42.63,0,0,1-2.28,4.14c-.3.49-.62,1-1,1.43h0a10.46,10.46,0,0,1-.46,1.09,27.67,27.67,0,0,1-1.48,2.66q-.43.74-.84,1.47h0c-.13.25-.25.51-.36.77a6.77,6.77,0,0,1-.89,1.68,3.66,3.66,0,0,1-.33.37c-.15.47-.37.92-.56,1.38s-.38.81-.6,1.2a12,12,0,0,1-.88,1.39l-.24.71a8.21,8.21,0,0,1-.88,1.9,4.27,4.27,0,0,1-.45.6,1,1,0,0,1-.44.8c-.14.44-.3.86-.47,1.29a36.77,36.77,0,0,1-2.1,4.39l-.63,1.15,0,0c-.16.52-.34,1-.53,1.55-.38,1-.8,2-1.25,3l-1.05,2.3,0,0c-.4,1.07-.8,2.14-1.21,3.21h0a1.16,1.16,0,0,1-.06.42.67.67,0,0,1-.06.12.72.72,0,0,1-.27.28c-.07.28-.17.55-.24.83-.29,1-.62,2.07-1,3.08-.26.69-.51,1.39-.8,2.07h0c-.06.43,0,.89-.38,1.22-.07.33-.16.65-.23,1-.1.47-.21,1-.35,1.41s-.32,1-.5,1.44c-.07.18-.12.38-.2.56,0,0,0,0,0,0-.07.49-.17,1-.28,1.44-.23,1-.53,2-.82,3-.16.53-.32,1.06-.47,1.59,0,0,0,0,0,0,0,.24-.08.48-.11.71a6.78,6.78,0,0,1-.4,1.61,2.22,2.22,0,0,1-.27.5h0a3.33,3.33,0,0,1,0,.54,3,3,0,0,1-.14.79,2.24,2.24,0,0,1-.32.66h0c-.22,2.63-1,5.16-1.43,7.76a7,7,0,0,1-.57,2.66l0,0c0,.41-.07.82-.12,1.23-.06.64-.14,1.27-.25,1.9a17.32,17.32,0,0,1-.47,2.11l0,0a25.82,25.82,0,0,1-.82,6h0c0,.49,0,1-.06,1.48-.09,1.33-.27,2.65-.47,4-.09.6-.19,1.2-.28,1.8l0,0a12.21,12.21,0,0,1-.07,1.35c-.06.61-.15,1.21-.23,1.82,0,0,0,.06,0,.09a13.72,13.72,0,0,0-.16,2.72h2c.1-.93.19-1.85.31-2.78a301.76,301.76,0,0,1,4.93-30.31,176.81,176.81,0,0,1,7.65-25.37,212.39,212.39,0,0,1,10.21-21.83c2.57-4.8,5.24-9.54,7.86-14.31a141.51,141.51,0,0,1,8-12.87,143.67,143.67,0,0,1,9-11.45c4.88-5.64,9.82-11.22,15.68-15.87a115.41,115.41,0,0,1,23.48-14.58,81.52,81.52,0,0,1,35-7.56c8.28,0,16.18,2.07,23.87,5a81.5,81.5,0,0,1,16.78,8.71,216,216,0,0,1,18.43,14c3.2,2.7,6.37,5.45,9.65,8,4.23,3.34,8.66,6.42,12.83,9.82,10.26,8.35,21.58,15,33.15,21.34a169.42,169.42,0,0,0,20.6,9.55A103.12,103.12,0,0,0,907.05,524a127.14,127.14,0,0,0,23.57,2.61A69,69,0,0,0,957.9,522,81.85,81.85,0,0,0,979,509.43a114,114,0,0,0,8.7-7.89A159.38,159.38,0,0,0,1000,488v-5.2a30.89,30.89,0,0,1-3.56,4.42C994.71,489.13,993.14,491.2,991.24,493Z" transform="translate(-0.01 0)"/><path class="cls-1" d="M771.83,441.83c-.4-.1-.81-.18-1.21-.26A3.28,3.28,0,0,0,771.83,441.83Z" transform="translate(-0.01 0)"/><path class="cls-1" d="M906.6,520.28l-1.71-.36A2.09,2.09,0,0,0,906.6,520.28Z" transform="translate(-0.01 0)"/><path class="cls-2" d="M453.41,578.7h0a9,9,0,0,0-1.42.72,2.3,2.3,0,0,1-.74.24h0c-.42.26-.86.47-1.29.7-.64.34-1.28.66-1.94.95s-1.29.56-2,.78l-.57.39a5.47,5.47,0,0,1-1.66.72,3.44,3.44,0,0,1-.56.09,1.43,1.43,0,0,1-.27.32,1.86,1.86,0,0,1-.84.39,4,4,0,0,1-.5.09.68.68,0,0,1-.32.31h0a1.08,1.08,0,0,1-.48.08h0L440,585a5.19,5.19,0,0,1-1.3.57,3.78,3.78,0,0,1-.67.13,1.1,1.1,0,0,1-.83.39h0a10.81,10.81,0,0,1-1,.62,20.71,20.71,0,0,1-2.66,1.11l-1.07.35,0,0a6.23,6.23,0,0,1-.8.44,7.48,7.48,0,0,1-1.23.53c-.27.08-.54.19-.82.25h0c-.23.16-.47.31-.71.45a8.29,8.29,0,0,1-1.77.8,11.53,11.53,0,0,1-1.15.32h0c-.71.41-1.44.77-2.18,1.12-2.36,1.11-4.81,2-7.18,3.09a38.79,38.79,0,0,1-3.57,1.54c-.33.11-.68.22-1,.3h0a6,6,0,0,1-.82.52,15,15,0,0,1-2.23.94c-.46.16-.91.32-1.36.5a.57.57,0,0,1-.25.26c-.46.3-1.22.15-1.41.86h7.2c.08-.47.44-.43.78-.43a8.31,8.31,0,0,1,1.15-.66,13.26,13.26,0,0,1,1.47-.59l.37-.13,1-.28h0c.55-.34,1.11-.65,1.68-.94,1.94-1,4-1.76,6-2.65a37.49,37.49,0,0,1,4.16-1.83l.55-.18a1.11,1.11,0,0,1,.83-.37,1,1,0,0,1,.3-.27,1.13,1.13,0,0,1,.45-.14l.43,0a.63.63,0,0,1,.26-.23l.18-.09a2.2,2.2,0,0,1,.37-.06.72.72,0,0,1,.26-.26l.15-.08a1.34,1.34,0,0,1,.4-.07h0l1.31-.71a26.85,26.85,0,0,1,3.95-1.76c.37-.12.73-.25,1.12-.36a.64.64,0,0,1,.32-.31h0a1,1,0,0,1,.47-.06,4.11,4.11,0,0,1,.63-.49c.77-.48,1.66-.74,2.47-1.15,3-1.48,5.95-2.91,8.92-4.37.45-.22.88-.46,1.31-.69l.1,0a1.67,1.67,0,0,0,.86-.88,1.1,1.1,0,0,0,0-.7C455.26,578.51,454.35,578.35,453.41,578.7Z" transform="translate(-0.01 0)"/></svg>